<?xml version="1.0" encoding="utf-8"?>
<!-- Generator: Adobe Illustrator 23.1.0, SVG Export Plug-In . SVG Version: 6.00 Build 0)  -->
<svg version="1.1" id="Layer_1" xmlns="http://www.w3.org/2000/svg" xmlns:xlink="http://www.w3.org/1999/xlink" x="0px" y="0px"
	 viewBox="0 0 375 250" style="enable-background:new 0 0 375 250;" xml:space="preserve">
<style type="text/css">
	.st0{fill:none;}
	.st1{opacity:0.1;}
	.st2{display:none;opacity:0.1;}
	.st3{display:inline;}
	.st4{fill:#B97C4D;}
	.st5{fill:#558462;}
	.st6{fill:#5F936F;}
	.st7{fill:#61A075;}
	.st8{fill:#63936F;}
	.st9{fill:#5C8C6A;}
	.st10{fill:#ECBD6F;}
	.st11{fill:#E5B46C;}
	.st12{fill:#38506E;}
	.st13{fill:#F3C88C;}
	.st14{fill:#DDAA55;}
	.st15{fill:#C08B3D;}
	.st16{fill:#FFFFFF;}
	.st17{fill:#EAEAEA;}
	.st18{fill:#FFD741;}
	.st19{fill:#918FA7;}
	.st20{fill:#A4A1B7;}
	.st21{fill:#8ECEAA;}
	.st22{fill:#F37146;}
	.st23{fill:#DCDBDB;}
	.st24{fill:#D39F53;}
	.st25{fill:#455E82;}
	.st26{fill:none;stroke:#787878;stroke-width:3;stroke-linecap:round;stroke-miterlimit:10;}
	.st27{fill:none;stroke:#787878;stroke-width:3;stroke-linecap:round;stroke-linejoin:round;stroke-miterlimit:10;}
	.st28{fill:none;stroke:#8E8D8D;stroke-width:3;stroke-linecap:round;stroke-miterlimit:10;}
	.st29{fill:#8E8D8D;}
	.st30{fill:#787878;}
	.st31{fill:#ABABAB;}
	.st32{fill:#EEEFF1;}
	.st33{fill:#DDDDDD;}
	.st34{fill:#EAB69B;}
	.st35{fill:#D89C88;}
	.st36{fill:#D3D3D3;}
	.st37{fill:#4F4F4F;}
	.st38{fill:none;stroke:#000000;stroke-width:0.4441;stroke-miterlimit:10;}
	.st39{fill:#443231;}
	.st40{fill:#8C5F54;}
	.st41{fill:#BA8170;}
	.st42{fill:#2D201F;}
	.st43{fill:none;stroke:#000000;stroke-width:0.5;stroke-linecap:round;stroke-linejoin:round;stroke-miterlimit:10;}
	.st44{fill:#EABC87;}
	.st45{fill:#9B9A9A;}
	.st46{fill:none;stroke:#ACACAC;stroke-width:3;stroke-linecap:round;stroke-miterlimit:10;}
	.st47{fill:none;stroke:#9B9A9A;stroke-width:1.5;stroke-linecap:round;stroke-miterlimit:10;}
	.st48{fill:#828282;}
	.st49{opacity:0.5;fill:url(#SVGID_1_);}
</style>
<rect class="st0" width="375" height="250"/>
<g class="st1">
	
		<ellipse transform="matrix(0.9998 -2.066265e-02 2.066265e-02 0.9998 -4.0834 3.9191)" cx="187.6" cy="199.6" rx="166.5" ry="41.4"/>
</g>
<g class="st2">
	<ellipse class="st3" cx="75.3" cy="201.1" rx="22.7" ry="9.3"/>
	
		<ellipse transform="matrix(0.9997 -2.339129e-02 2.339129e-02 0.9997 -4.7157 4.5429)" class="st3" cx="191.8" cy="203.8" rx="92.8" ry="26.3"/>
	<ellipse class="st3" cx="126.5" cy="223.3" rx="39.9" ry="16"/>
</g>
<g>
	<ellipse class="st4" cx="62.9" cy="141.4" rx="20.5" ry="6"/>
	<g>
		<path class="st5" d="M60.5,106.3c9.5-3.3,20.8,0,25.7-21.6C76.4,92.4,63.7,94.8,60.5,106.3z"/>
		<path class="st6" d="M72.6,130.1c9.9-3.7,20.5-5.8,20.5-32.7C84.1,110.6,69.1,107.5,72.6,130.1z"/>
		<path class="st7" d="M77.3,94.1c-0.7,18.2-10.7,24,1.9,30.2C88.3,115.8,83.3,105,77.3,94.1z"/>
		<path class="st5" d="M40.7,85.5c-0.2,21.4,5.1,39.4,17.2,35.3C65,106.5,56,100.3,40.7,85.5z"/>
		<path class="st5" d="M70.9,111.9c-5,4.4-12.6,1.4-14.2-29.5C66.3,85.3,69.7,97,70.9,111.9z"/>
		<path class="st7" d="M57.7,124.2c13.8-5.6,20.8-19,17-38C72.5,102.5,57.7,99.5,57.7,124.2z"/>
		<path class="st7" d="M55.9,125c1.1-22.1-15.6-21.6-23-36.3C32.7,120.7,50.7,125.2,55.9,125z"/>
		<path class="st6" d="M78.5,92.3c2.5,18,0.2,29.8-11.1,29.8C60.2,110.2,72.1,107.2,78.5,92.3z"/>
		<path class="st5" d="M86.5,93.2c5.6,18-1.7,23.2-9,28.5C77.8,113.6,78.2,105.6,86.5,93.2z"/>
		<path class="st6" d="M51.7,130.4c-5.8-0.6-9.6-5.8-11.6-15.6C49,120,52.8,125.2,51.7,130.4z"/>
	</g>
	<g>
		<path class="st5" d="M61,135.3c-8.1-5.8-19.9-5.9-18.5-28C49.7,117.4,61.2,123.3,61,135.3z"/>
		<path class="st6" d="M54.1,148.9c-9.5-4.6-19.9-7.7-17.3-34.6C44.5,128.4,59.7,126.7,54.1,148.9z"/>
		<path class="st7" d="M48.6,115.1c0.7,18.2,10.7,24-1.9,30.2C37.6,136.9,42.6,126.1,48.6,115.1z"/>
		<path class="st8" d="M84.6,112.1c0.2,21.4-5.1,39.4-17.2,35.3C60.2,133.1,69.3,126.9,84.6,112.1z"/>
		<path class="st9" d="M73.6,102.1c3,24.1-4.4,32-9.6,36.6C55,118.7,67.2,123.4,73.6,102.1z"/>
		<path class="st6" d="M59,137.5c6.3,1.9,12-3.9,0.9-32.7C52.4,111.4,54,123.4,59,137.5z"/>
		<path class="st7" d="M70.7,153.6c-13.8-5.6-20.8-19-17-38C55.9,131.8,70.7,128.8,70.7,153.6z"/>
		<path class="st7" d="M71.9,147.2c-3.4-21.9,13.3-23.1,19.1-38.5C94.6,140.5,77.1,146.8,71.9,147.2z"/>
		<path class="st6" d="M50.1,123.8c-2.5,18-0.2,29.8,11.1,29.8C68.4,141.8,56.5,138.7,50.1,123.8z"/>
		<path class="st5" d="M47.2,127.1c-6.1,17.8,1,23.3,8.1,28.7C55.2,147.7,55.1,139.7,47.2,127.1z"/>
		<path class="st6" d="M74,147.4c5.8-0.6,9.6-5.8,11.6-15.6C76.8,137,72.9,142.2,74,147.4z"/>
	</g>
	<path class="st10" d="M45.4,188.9c0,4.2,7.8,7.6,17.5,7.6s17.5-3.4,17.5-7.6l3-47.4c0,3.3-9.2,6-20.5,6s-20.5-2.7-20.5-6
		L45.4,188.9z"/>
	<path class="st11" d="M45.4,188.9l-3-47.4c0,2.4,4.8,4.5,11.8,5.5c0.5,0.1,1.1,48.8,1.1,48.8C49.4,194.5,45.4,191.9,45.4,188.9z"/>
</g>
<g>
	<path d="M99.8,203.2c0,0-2.5,8.3,4.7,8.3c13.3,0,20.8-19.3,16.1-19.3S99.8,199.4,99.8,203.2z"/>
	<path class="st12" d="M86.6,149.4c9.7,0,16.9,2.5,22.2,8.6c5.3,6.1,5.4,44.7,5.4,44.7c-5.5,2.1-9.4,2.3-14.4,0.5
		c-1-11.6,1.4-23.3-3.5-31.5L86.6,149.4"/>
</g>
<g>
	<g>
		<g>
			<polygon class="st13" points="245.9,173.2 217.8,201.5 220.8,201.5 249,173.2 			"/>
			<polygon class="st14" points="249,173.2 220.8,201.5 220.8,209.4 249,181.2 			"/>
			<rect x="217.8" y="201.5" class="st15" width="3.2" height="7.9"/>
		</g>
		<g>
			<rect x="230.2" y="125.8" class="st15" width="3.2" height="63"/>
			<polygon class="st14" points="233.4,188.9 239.7,182.5 239.7,93.7 233.4,125.8 			"/>
		</g>
	</g>
	<g>
		<g>
			<polygon class="st13" points="150.5,173.2 122.3,201.5 125.4,201.5 153.6,173.2 			"/>
			<polygon class="st14" points="153.6,173.2 125.4,201.5 125.4,209.4 153.6,181.2 			"/>
			<rect x="122.3" y="201.5" class="st15" width="3.2" height="7.9"/>
		</g>
		<g>
			<rect x="134.8" y="125.8" class="st15" width="3.2" height="63"/>
			<polygon class="st14" points="138.1,188.9 144.4,182.5 144.4,125.8 138.1,125.8 			"/>
		</g>
	</g>
	<g>
		<polygon class="st14" points="238.6,125.8 257,40.4 255,38.4 236.6,123.8 		"/>
		<polygon class="st4" points="112.2,123.8 114.2,125.8 238.6,125.8 236.6,123.8 		"/>
		<polygon class="st10" points="130.6,38.4 112.2,123.8 236.6,123.8 255,38.4 		"/>
	</g>
	<g>
		<polygon class="st16" points="141.2,52.1 127.1,117.6 222.4,117.6 236.6,52.1 		"/>
		<g>
			<g>
				<polygon class="st17" points="144.2,64.6 139.8,84.7 169.1,84.7 173.5,64.6 				"/>
				
					<ellipse transform="matrix(0.2196 -0.9756 0.9756 0.2196 62.6528 217.8215)" class="st18" cx="167.5" cy="69.7" rx="2.8" ry="2.4"/>
				<path class="st19" d="M151.6,81.1c0,0,8.7-8.4,10-8.4c1.3,0,8.3,8.4,8.3,8.4l-0.8,3.6l-17.5,0.1V81.1z"/>
				<path class="st20" d="M141.4,77.6c0,0,6.3-9.5,8.3-9.5c2,0,9.7,16.7,9.7,16.7l-19.4-0.1L141.4,77.6z"/>
			</g>
			<g>
				<polygon class="st17" points="195.7,81.8 177.4,81.8 174.4,81.8 171.2,96.5 174.3,96.5 192.6,96.5 195.7,96.5 198.8,81.8 				
					"/>
				<g>
					<polygon class="st21" points="174.8,86.9 172.7,96.5 174.7,96.5 176.8,86.9 					"/>
					<polygon class="st18" points="177,89.4 175.5,96.5 177.4,96.5 179,89.4 					"/>
					<polygon class="st22" points="180,88.2 178.2,96.5 180.2,96.5 182,88.2 					"/>
				</g>
				<g>
					<polygon class="st21" points="187.1,91.4 186,96.5 187.9,96.5 189,91.4 					"/>
					<polygon class="st18" points="190.1,90.4 188.7,96.5 190.7,96.5 192,90.4 					"/>
					<polygon class="st22" points="194.1,84.5 191.5,96.5 193.4,96.5 196,84.5 					"/>
				</g>
			</g>
			<g>
				<polygon class="st17" points="222,81.8 203.7,81.8 200.6,81.8 197.4,96.5 200.5,96.5 218.8,96.5 221.9,96.5 225.1,81.8 				"/>
				<g>
					<polygon class="st20" points="213.2,91.4 212.1,96.5 214,96.5 215.1,91.4 					"/>
					<polygon class="st20" points="216.3,89.4 214.8,96.5 216.8,96.5 218.3,89.4 					"/>
					<polygon class="st20" points="218.9,90.4 217.6,96.5 219.5,96.5 220.8,90.4 					"/>
				</g>
				<g>
					<polygon class="st20" points="206.1,88.2 204.3,96.5 206.3,96.5 208.1,88.2 					"/>
					<polygon class="st20" points="200.9,86.9 198.8,96.5 200.8,96.5 202.8,86.9 					"/>
					<polygon class="st20" points="204.2,84.5 201.6,96.5 203.6,96.5 206.2,84.5 					"/>
				</g>
			</g>
			<polygon class="st23" points="185.5,64.7 178.1,64.7 177.1,69 184.6,69 228.4,69 229.3,64.7 			"/>
			<polygon class="st17" points="222.1,74.1 215.6,74.1 210.9,74.1 192,74.1 187.3,74.1 180.8,74.1 176.1,74.1 175.5,76.8 
				180.2,76.8 186.7,76.8 191.4,76.8 210.3,76.8 215,76.8 221.5,76.8 226.2,76.8 226.8,74.1 			"/>
			<polygon class="st17" points="226,78 221.3,78 221.3,78 214.8,78 214.8,78 210.1,78 210.1,78 209.5,80.8 209.5,80.8 214.2,80.8 
				214.2,80.8 220.7,80.8 220.7,80.8 225.4,80.8 225.4,80.8 226,78 			"/>
			<polygon class="st17" points="208.5,78.1 203.8,78.1 203.8,78.1 197.3,78.1 197.3,78.1 192.6,78.1 192.6,78.1 192,80.8 192,80.8 
				196.7,80.8 196.7,80.8 203.2,80.8 203.2,80.8 207.9,80.8 207.9,80.8 208.5,78.1 			"/>
			<polygon class="st17" points="191.2,78 186.5,78 186.5,78 180,78 180,78 175.3,78 175.3,78 174.7,80.8 174.7,80.8 179.4,80.8 
				179.4,80.8 185.9,80.8 185.9,80.8 190.6,80.8 190.6,80.8 191.2,78 			"/>
			<polygon class="st17" points="201,70.2 196.8,70.2 196.3,70.2 193.4,70.2 192.9,70.2 190.3,70.2 189.8,70.2 188.7,70.2 
				188.2,70.2 185.6,70.2 185.1,70.2 182.2,70.2 181.7,70.2 177.5,70.2 177,70.2 176.4,73 176.9,73 181.1,73 181.6,73 184.5,73 
				185.1,73 187.6,73 188.1,73 189.2,73 189.8,73 192.3,73 192.8,73 195.7,73 196.3,73 200.4,73 201,73 201.5,70.2 			"/>
			<polygon class="st17" points="227.7,70.2 227.2,70.2 223.1,70.2 223,70.2 222.5,70.2 219.6,70.2 219.5,70.2 219.1,70.2 
				216.6,70.2 216.5,70.2 216,70.2 214.9,70.2 214.8,70.2 214.4,70.2 211.9,70.2 211.8,70.2 211.4,70.2 208.4,70.2 208.3,70.2 
				207.9,70.2 203.7,70.2 203.6,70.2 203.2,70.2 202.6,73 203,73 203.1,73 207.3,73 207.7,73 207.8,73 210.8,73 211.2,73 211.3,73 
				213.8,73 214.2,73 214.3,73 215.5,73 215.9,73 216,73 218.5,73 218.9,73 219,73 222,73 222.4,73 222.5,73 226.7,73 227.1,73 
				227.2,73 227.8,70.2 			"/>
			<polygon class="st17" points="165.7,88.4 161.9,88.4 159.1,88.4 148,88.4 145.2,88.4 141.4,88.4 138.6,88.4 138.3,90 141.1,90 
				144.9,90 147.6,90 158.8,90 161.6,90 165.4,90 168.1,90 168.5,88.4 			"/>
			<polygon class="st17" points="165.2,90.7 161.4,90.7 158.6,90.7 147.5,90.7 144.7,90.7 140.9,90.7 138.1,90.7 137.8,92.3 
				140.6,92.3 144.4,92.3 147.1,92.3 158.3,92.3 161.1,92.3 164.9,92.3 167.6,92.3 168,90.7 			"/>
			<polygon class="st17" points="166.3,86.1 162.5,86.1 159.7,86.1 148.5,86.1 145.8,86.1 142,86.1 139.2,86.1 138.8,87.7 
				141.6,87.7 145.4,87.7 148.2,87.7 159.3,87.7 162.1,87.7 165.9,87.7 168.7,87.7 169,86.1 			"/>
			<polygon class="st17" points="147.1,93 144.3,93 140.5,93 137.7,93 137.4,94.6 140.1,94.6 143.9,94.6 146.7,94.6 151.3,94.6 
				151.6,93 			"/>
			<polygon class="st17" points="161.8,104.9 158,104.9 155.3,104.9 144.1,104.9 141.3,104.9 137.5,104.9 134.8,104.9 134.4,106.6 
				137.2,106.6 141,106.6 143.8,106.6 154.9,106.6 157.7,106.6 161.5,106.6 164.3,106.6 164.6,104.9 			"/>
			<polygon class="st17" points="161.3,107.3 157.5,107.3 154.8,107.3 143.6,107.3 140.8,107.3 137,107.3 134.3,107.3 133.9,108.9 
				136.7,108.9 140.5,108.9 143.3,108.9 154.4,108.9 157.2,108.9 161,108.9 163.8,108.9 164.1,107.3 			"/>
			<polygon class="st17" points="143.2,109.6 140.4,109.6 136.6,109.6 133.8,109.6 133.5,111.2 136.2,111.2 140.1,111.2 
				142.8,111.2 153.2,111.2 153.6,109.6 			"/>
			<polygon class="st17" points="217,97.9 210.5,97.9 205.8,97.9 186.8,97.9 182.1,97.9 175.6,97.9 170.9,97.9 170.3,100.7 
				175,100.7 181.5,100.7 186.2,100.7 205.2,100.7 209.9,100.7 216.4,100.7 221.1,100.7 221.6,97.9 			"/>
			<polygon class="st17" points="186,101.9 181.3,101.9 174.8,101.9 170.1,101.9 169.5,104.6 174.2,104.6 180.7,104.6 185.4,104.6 
				203,104.6 203.6,101.9 			"/>
			
				<ellipse transform="matrix(0.2196 -0.9756 0.9756 0.2196 11.8748 213.8159)" class="st20" cx="139.6" cy="99.5" rx="3.4" ry="2.8"/>
			
				<ellipse transform="matrix(0.2196 -0.9756 0.9756 0.2196 17.7802 221.1986)" class="st20" cx="147.2" cy="99.5" rx="3.4" ry="2.8"/>
			
				<ellipse transform="matrix(0.2196 -0.9756 0.9756 0.2196 23.9785 228.9476)" class="st20" cx="155.1" cy="99.5" rx="3.4" ry="2.8"/>
			
				<ellipse transform="matrix(0.2196 -0.9756 0.9756 0.2196 30.1377 236.6477)" class="st20" cx="163" cy="99.5" rx="3.4" ry="2.8"/>
			<path class="st20" d="M181.6,106.7c-0.3,0-0.5,0-0.8,0l0,0h-7.5c-0.1,0-0.2,0-0.2,0H173l0,0c-1.3,0.1-2.5,0.8-2.9,1.8
				c-0.4,1.2,0.5,2.4,2.1,2.6c0.2,0,0.3,0,0.5,0l0,0h0.1c0,0,0.1,0,0.1,0h7.7l0,0c1.4,0,2.8-0.7,3.2-1.8
				C184.1,108.1,183.2,106.9,181.6,106.7z"/>
			<path class="st20" d="M197.9,106.7c-0.3,0-0.5,0-0.8,0l0,0h-7.5c-0.1,0-0.2,0-0.2,0h-0.1l0,0c-1.3,0.1-2.5,0.8-2.9,1.8
				c-0.4,1.2,0.5,2.4,2.1,2.6c0.2,0,0.3,0,0.5,0l0,0h0.1c0,0,0.1,0,0.1,0h7.7l0,0c1.4,0,2.8-0.7,3.2-1.8
				C200.4,108.1,199.5,106.9,197.9,106.7z"/>
			<path class="st20" d="M214.2,106.7c-0.3,0-0.5,0-0.8,0l0,0H206c-0.1,0-0.2,0-0.2,0h-0.1l0,0c-1.3,0.1-2.5,0.8-2.9,1.8
				c-0.4,1.2,0.5,2.4,2.1,2.6c0.2,0,0.3,0,0.5,0l0,0h0.1c0,0,0.1,0,0.1,0h7.7l0,0c1.4,0,2.8-0.7,3.2-1.8
				C216.8,108.1,215.8,106.9,214.2,106.7z"/>
		</g>
		<g>
			<polygon class="st17" points="141.2,52.1 236.6,52.1 234.9,59.6 139.6,59.6 			"/>
			
				<ellipse transform="matrix(0.2196 -0.9756 0.9756 0.2196 57.9505 184.108)" class="st22" cx="144.1" cy="55.8" rx="1.9" ry="1.6"/>
			
				<ellipse transform="matrix(0.2196 -0.9756 0.9756 0.2196 61.499 188.5443)" class="st18" cx="148.6" cy="55.8" rx="1.9" ry="1.6"/>
			
				<ellipse transform="matrix(0.2196 -0.9756 0.9756 0.2196 65.4461 193.4788)" class="st21" cx="153.7" cy="55.8" rx="1.9" ry="1.6"/>
		</g>
	</g>
	<g>
		<polygon class="st4" points="120,123.8 118,121.8 226.8,121.8 228.8,123.8 		"/>
		<polygon class="st24" points="228.8,123.8 230.1,117.6 228.1,115.6 228.1,115.6 226.8,121.8 		"/>
		<polygon class="st11" points="226.8,121.8 228.1,115.6 228.1,115.6 119.3,115.6 118,121.8 		"/>
	</g>
</g>
<g>
	<path d="M131.4,206.4c0,0-2.5,8.3,4.7,8.3c13.3,0,25.8-12.9,21.4-14.5C153.1,198.6,131.4,202.6,131.4,206.4z"/>
	<g>
		<path class="st25" d="M144.3,158.8c3.2,16.4,2.1,45.5,2.1,45.5c-3.5,3.2-10.1,3.8-14.4,1.8c-0.5-13.9,0.3-29.6-3.9-36.6
			C131,163.3,139.6,159.3,144.3,158.8z"/>
		<g>
			<path class="st12" d="M135.8,165.1c0,0,0,0.1,0,0.1C135.9,165.1,135.9,165.1,135.8,165.1z"/>
			<path class="st12" d="M141,161.4c0,0-8.5,1.8-12.9,8.1c4.2,7,3.4,22.7,3.9,36.6c1.6,0.7,4.1,1,5.8,1.1
				c0.3-12.7,0.6-28.8-1.4-39.1C138.2,166.9,141,161.4,141,161.4z"/>
		</g>
	</g>
</g>
<g>
	<g>
		<g>
			<path class="st26" d="M109.2,196.4c12.2,3.4,5.2,15,14.6,18.9"/>
			<path class="st26" d="M102.2,215.3c5.1-5.2,0-15.5,7.1-18.9"/>
			<polyline class="st27" points="99.2,214.4 104.5,210.4 119.2,210.4 119.9,214.4 			"/>
			<line class="st28" x1="119.9" y1="214.4" x2="99.2" y2="214.4"/>
			<path class="st28" d="M109.2,197.2c10.9,0,8.2,23.1,16,23.1"/>
			<path class="st28" d="M109.2,197.2c-10.3,0-8,23.1-14.2,23.1"/>
		</g>
		<g>
			<rect x="106.5" y="190.2" class="st29" width="5.5" height="6.2"/>
			<ellipse class="st29" cx="109.2" cy="196.4" rx="2.8" ry="1.4"/>
			<ellipse class="st30" cx="109.2" cy="190.2" rx="2.8" ry="1.4"/>
		</g>
		<g>
			<ellipse class="st31" cx="109.2" cy="189.8" rx="2" ry="1"/>
			<rect x="107.2" y="178.1" class="st31" width="4.1" height="11.7"/>
		</g>
		<polygon class="st29" points="99.2,181.3 107.7,177.8 99.1,178.1 		"/>
		<path class="st29" d="M109.2,171.2c-1.5,0-2.8,0.6-2.8,1.4v6.2c0,0.8,1.2,1.4,2.8,1.4c1.5,0,2.8-0.6,2.8-1.4v-6.2
			C112,171.8,110.8,171.2,109.2,171.2z"/>
	</g>
	<g>
		<path class="st4" d="M99.1,169.2L88,174.6l-2.6-0.7v2c9,2.9,19.5,2.8,33,0.7c5.2-1.7,10.3-4.1,15.3-7.4v-2L99.1,169.2z"/>
		<path class="st11" d="M85.4,173.9c9,2.9,19.5,2.8,33,0.7c5.2-1.7,10.3-4.1,15.3-7.4l-34.6,0L85.4,173.9z"/>
	</g>
</g>
<g>
	<g>
		<g>
			<path class="st25" d="M79.5,149.5c0,17.1,5.4,25.1,14.8,25.1h15.5c11.2,0,10.3-14,10.3-26.9L79.5,149.5z"/>
			<path class="st25" d="M120.2,147.7c0,0,10.2-1,19.2,1.2c2.2,0.6,3.8,4.4,4.9,9.9c0,0-18,15.9-34.4,15.9
				C106,167.1,109.4,154.9,120.2,147.7z"/>
			<path class="st12" d="M94.3,174.6h15.5c0.4,0,0.7,0,1,0c2-0.1,3.9-0.3,5.7-0.7c-9.7-0.1-18.9-10.6-18.9-20.2l-18.2-4.2
				C79.5,166.5,85,174.6,94.3,174.6z"/>
		</g>
		<g>
			<path class="st32" d="M101,80.5c-31.3,0-21.5,69-21.5,69l40.7-1.8C113.7,129,123.1,80.5,101,80.5z"/>
			<path class="st33" d="M98.2,86.5c-3.2,38.2,5.8,55.8,22,61.2c-24.9,9.3-34.4,6.7-40.7,1.8c-3.9-33.9-2.7-62.7,12.6-66.7
				L98.2,86.5z"/>
		</g>
		<g>
			<path class="st34" d="M161.4,109.2c0,0,4.2-2.7,5.4-1.4s8.6,0.5,8.6,0.5c-3.2,2.3-6.4,3.6-9.5,3.3L161.4,109.2z"/>
			<path class="st34" d="M172.2,107.4c0,0-1.3-0.4-3-0.9c-1.7-0.5-0.9,1.2,0.1,1.9S172.2,107.4,172.2,107.4z"/>
			<path class="st34" d="M174.7,111.7c0,0,0.2,1.2-1.1,2.2c-1.3,1-7.8,3-10.6,2.2l0.3-1.6L174.7,111.7z"/>
			<path class="st34" d="M173.6,113.9c-0.2,1.8-4.8,3-11.2,3.6l0.6-1.4L173.6,113.9z"/>
			<polygon class="st35" points="173.6,113.9 172.9,114.3 173.3,114.6 			"/>
			<path class="st35" d="M172.2,107.4c-0.9,0.8-1.9,1.1-2.9,1c1.2-0.4,2.2-0.8,2.4-1.1L172.2,107.4z"/>
			<path class="st35" d="M174.7,111.7c0,0.2,0,0.3,0,0.5c-0.6,0.3-1.5,0.5-2.5,0.7L174.7,111.7z"/>
			<path class="st34" d="M175.4,108.3c0,0,0.6,0.2,1.1,0.8s-0.4,1.4-1.8,2.6c-2.6,1.8-9.5,3.4-11.4,2.8s-1.9-5.4-1.9-5.4"/>
			<path class="st35" d="M175.1,108.4c0.5,0.1,0.8,0.2,1,0.4c-1.3,1.3-2.8,2-4.4,2.5L175.1,108.4z"/>
			<path class="st34" d="M164,112.9l-2.6-3.7c0,0,0.2-2.6,1.3-4.7s6.3-0.7,6.5,0.3c0.3,1-4.1,0.7-2.9,2.5"/>
			<path class="st35" d="M165,105.6c-0.6,0.7,0.4,2.1,1.2,1.7c-0.8-1.3,1.2-1.5,2.3-1.9c0.4-0.4,0.6-0.6,0.6-0.6
				S165.6,104.9,165,105.6z"/>
		</g>
		<g>
			<path class="st32" d="M143.4,131.4c2.3-0.5,18.7-9.7,20.4-12s-1.2-8.8-3.9-8.4c-2.7,0.3-24.7,9-24.7,9S141.1,132,143.4,131.4z"/>
			<path class="st33" d="M138,125c1.8,3.2,4.2,6.7,5.5,6.4c2.3-0.5,18.7-9.7,20.4-12c0.7-1,0.6-2.7,0.1-4.3l0,0
				c0,0-12.3,9.2-20.9,10.8C141.4,126.2,139.7,125.8,138,125z"/>
			<path class="st36" d="M141.4,117.4c2.8,1.9,3.5,4.6,3.1,7.5L141.4,117.4z"/>
			<path class="st36" d="M116.8,111.3l-7.9-8.1c3,5.2,4.9,8.1,7.9,10.4V111.3z"/>
			<path class="st32" d="M143.6,121.4C142,117.5,120,85.3,111.4,83c0,0,0,0-0.1,0c-1.9-0.5-7.1-2.1-11.2-1.6L98.2,89
				c0,0,3.3-1.1,6.6-2.4c-1.8,3.8-1.3,9.5,0.4,12c2.6,4,26.1,29.8,33.9,32.7C146.8,134.2,145.3,125.5,143.6,121.4z"/>
			<path class="st33" d="M144.8,125.5c-0.6,0.2-1.2,0.3-1.8,0.4c-8.6,1.6-24.8-21.4-34-22.8c0,0,3.5,3.9,3.5,3.9
				c8.3,9.1,21.3,22.3,26.7,24.3C144.7,133.4,145.5,129.4,144.8,125.5z"/>
		</g>
		<g>
			<polygon class="st37" points="162.5,112.6 161.6,111.7 171.7,101.7 172.6,102.6 			"/>
			<g>
				
					<ellipse transform="matrix(0.6912 -0.7227 0.7227 0.6912 -30.9821 151.744)" class="st20" cx="162.1" cy="112.1" rx="0.3" ry="0.6"/>
				<path class="st37" d="M162.2,112c-0.2-0.2-0.5-0.3-0.6-0.2l-0.1,0.1l0.1,0.1c0,0.1,0.1,0.3,0.3,0.4c0.2,0.1,0.3,0.2,0.5,0.2
					l0.1,0.1l0.1-0.1C162.5,112.5,162.4,112.2,162.2,112z"/>
				
					<ellipse transform="matrix(0.6912 -0.7227 0.7227 0.6912 -31.1347 151.6867)" class="st20" cx="161.9" cy="112.3" rx="0.3" ry="0.6"/>
			</g>
			<g>
				<polygon class="st20" points="171.6,101.8 173,101.1 172.5,102.6 				"/>
				
					<ellipse transform="matrix(0.6912 -0.7227 0.7227 0.6912 -20.7012 155.9195)" class="st37" cx="172.1" cy="102.2" rx="0.3" ry="0.6"/>
			</g>
		</g>
		<g>
			<path class="st34" d="M168.6,108.4c1.2,0,2.5-0.4,3.6-1c2.6-1.5-1.6,0-3-2.1c-1.4-2.1,7.1-0.8,6.6,1c-0.6,1.8-0.8,3.3-4.5,5.2
				c-1.3,0.7-2.7,1.1-3.9,1.3C165.5,113.1,167.6,108.4,168.6,108.4z"/>
			<path class="st35" d="M173,106.9c0.3-0.4,0.8-1.1,0.8-1.1c-1.2-0.1-2.3,0.5-3,0.6C171.2,106.7,173,106.9,173,106.9z"/>
		</g>
		<path class="st36" d="M109.5,83c0.1-0.2,0.3-0.3,0.4-0.5c-1.8-0.7-4.3-1.5-6.8-1.9c-0.1,0-0.2,0-0.3,0c-0.1,0-0.2,0-0.4,0
			c-0.2,0-0.4,0-0.5,0c-0.3,0-0.6,0-0.9,0h0c-3.4,0-6.4,0.8-8.9,2.3c0,0.1-0.1,0.2,0,0.3C92.9,86.3,104.4,89.4,109.5,83z"/>
	</g>
	<g>
		<g>
			<path class="st34" d="M116.5,55.3c0,0,4.5,5.4,4.5,7.4c0,2-1.6,1.5-4.7,1.8C113.2,64.8,116.5,55.3,116.5,55.3z"/>
			<path class="st35" d="M117.6,56.9c0.8,2.7-1.3,7.4,0.5,7.2C119.9,63.8,117.6,56.9,117.6,56.9z"/>
		</g>
		<ellipse class="st38" cx="118.4" cy="56.4" rx="1.6" ry="4"/>
		<g>
			<path class="st39" d="M118.1,64.5c0,0,0.3,2,1.1,1.9c0.8-0.1,1.1-1.1,1.1-1.1c0.5,1,0.1,2.8-2.3,2.8
				C117,68,118.1,64.5,118.1,64.5z"/>
			<path class="st39" d="M117.6,70.3c0.5,2.1-0.1,5.3-3.4,6.3c-3.3,1-3.3-7.3-3.3-7.3L117.6,70.3z"/>
		</g>
		<g>
			<path class="st34" d="M103.7,37.2c16.2,3.9,13.8,8,13.7,19.1c2,5.6,0.4,16.9-2,19.7c-5.5,4-24.9-6.4-27.1-17.3
				C86,47.9,87.6,33.3,103.7,37.2z"/>
			<path class="st40" d="M93.2,82.9c2.3,2.8,10.5,4.3,15.3-0.3L93.2,82.9z"/>
			<path class="st35" d="M108.5,82.6c0,0-0.5-2.5-1.1-5.6c1.8,0.2,3.7,0.1,5.8-0.3c0,0-5.7-0.7-6.4-8.5c-0.2-1.5-0.1-3.4,0.1-5.4
				c1.4,1.5,3.4,1.8,3.6,1c-1-1.3-1.8-5.8-2.2-8.1c0.1-0.8,0.1-1.3-0.2-1.2c-2.4,0-4.2,0.4-5.1,4.6c-0.4,2.1-0.5,3.8-0.4,5
				c-1,0-2.2,0.2-3.2,0.6c-2.6-0.1-5,1-5,3.4c-0.1,5.2-1.3,14.7-1.3,14.7L108.5,82.6z"/>
			<path class="st41" d="M107.4,77.1l-0.9-4.1c0.5,1.5,1.6,2.9,3.4,4.2L107.4,77.1z"/>
			<path class="st41" d="M102.8,68.7c-0.4,9.8,0.9,12.8,5.7,14c-5.8,3-10.8,2.8-15.3,0.3l1.4-14.1L102.8,68.7z"/>
		</g>
		<path class="st35" d="M117.1,45c0,0-3-1.3-4.3,1.6s1.1,14.6,1.1,14.6l-4-11.3l1.6-6.4l2.9-0.4l2.4,0.9L117.1,45z"/>
		<g>
			<path class="st39" d="M92.6,68.9c-4.9-2.9-11.4-6.6-12.4-18.3S83.3,29.3,98,29.3c9.3,0,8.7,2.9,13.4,2.6c4.7-0.3,10.3,7.9,6.8,11
				c-3.5,3.1-3.1-1.1-6,2.6c-2.9,3.7,1.6,13.9,1.6,15.7c0,1.8-2.6,2.7-3.6,1.1c-1-1.5-0.7-9-4.6-7.5c-4.6,1.9-1.1,13.6-3.2,14.9
				S96,70.9,92.6,68.9z"/>
			<path class="st42" d="M105.6,48.2c-2.6-7.1,4.1-16.2,4.2-16.3c-3.1-0.4-3.7-2.6-11.8-2.6c-14.7,0-18.9,9.6-17.8,21.3
				c1,11.7,7.5,15.4,12.4,18.3c3.4,2,7.7,2.1,9.7,0.9c2-1.3-1.4-13,3.2-14.9c4-1.5,3.6,6,4.6,7.5c0.6,0.9,1.7,1,2.6,0.5l0,0
				C110.9,63,108.2,55.4,105.6,48.2z"/>
			<path class="st39" d="M116.1,72.9c1.1,0,1.3-1.4,1.6-2.7c-0.1,1.4-0.1,2.9-0.5,3.7c-0.2,1-1.6,2.2-2.9,2.6
				C115,75.5,115.7,74.3,116.1,72.9z"/>
		</g>
		<path class="st43" d="M119.9,56.4c0,0-7.7-1.1-12.5-1.8c-3.6-0.4-4.3,4.6-4.3,4.6c-0.1-0.4-0.4-0.8,0.4-1.6"/>
		<path class="st34" d="M107.9,54.3c-0.2,1.3,0.1,4.9,1.1,7.9c1,3,2.3,1.7,1.4,0.2s-1.4-6.3-1.3-7.9
			C109.3,53.4,108.1,53.2,107.9,54.3z"/>
	</g>
</g>
<g>
	<path class="st13" d="M76.3,121.3l-0.9,0.9c11,5.1,23.3,6.1,38-0.1l1-1C100.8,123.1,88,123.5,76.3,121.3z"/>
	<path class="st44" d="M90.1,124.4l0.6-1.6c-5-0.1-9.7-0.6-14.3-1.4l-0.9,0.9c4.7,2.1,9.6,3.6,14.8,4
		C90.2,125.6,90.1,125,90.1,124.4z"/>
	<path class="st10" d="M113.5,140.9c-17.1,5.6-30.5,3.6-38.2,0v-18.8c7.7,2.5,20.1,3.8,38.2,0V140.9z"/>
	<path class="st11" d="M90.1,124.4L90.1,124.4c-6.1-0.2-11-1.1-14.8-2.3v18.8c5.7,2.6,14.6,4.4,25.8,2.9l0.5-0.1
		c0.2,0,0.3-0.1,0.5-0.1C89.5,140.9,90.7,131.2,90.1,124.4z"/>
	<polygon class="st14" points="114.5,121.1 113.5,122.1 113.5,140.9 114.5,139.9 	"/>
	<g>
		<rect x="94.3" y="176" class="st31" width="5.5" height="6.2"/>
		<ellipse class="st31" cx="97.1" cy="182.2" rx="2.8" ry="1.4"/>
		<ellipse class="st29" cx="97.1" cy="176" rx="2.8" ry="1.4"/>
	</g>
	<g>
		<ellipse class="st31" cx="97.1" cy="175.7" rx="2" ry="1"/>
		<path class="st45" d="M97.1,176.7c-1.1,0-2-0.5-2-1s0.9-1,2-1V176.7z"/>
		<path class="st31" d="M88.2,135.3c0,21.5,6.9,19.8,6.9,40.4l4.1,0c0-22.5-7.4-18.6-7.4-40.4L88.2,135.3z"/>
		<path class="st45" d="M88.2,135.6c0,21.5,6.9,19.5,6.9,40.1l2.1,0c0-22.5-7.4-18.3-7.4-40L88.2,135.6z"/>
		<g>
			<path class="st46" d="M82.7,133.7c4.3,2.3,9.9,2.4,17.4-0.5"/>
			<path class="st47" d="M82.7,134.7c4.3,2.3,9.9,2.4,17.4-0.5"/>
		</g>
	</g>
</g>
<g>
	<g>
		<path class="st45" d="M333.5,196.2c-12.3,9-48.3,8.4-57.7,0c0-7.7,12.9-13.9,28.9-13.9C320.6,182.3,333.5,188.5,333.5,196.2z"/>
		<path class="st48" d="M307.2,182.4c-0.8,0-1.7-0.1-2.5-0.1c-15.9,0-28.9,6.2-28.9,13.9c3.1,2.7,8.9,4.6,15.9,5.6
			c0.2-7.6,11-11.3,14.4-11.8C312,189.1,311.4,182.7,307.2,182.4z"/>
	</g>
	<g>
		<ellipse class="st31" cx="304.7" cy="185.3" rx="2.6" ry="1.5"/>
		<rect x="302.1" y="44.3" class="st31" width="5.1" height="141"/>
		<polygon class="st45" points="302.1,57.6 302.1,185.3 304.7,185.3 304.7,56.8 		"/>
		<path class="st45" d="M304.7,186.8c-1.4,0-2.6-0.7-2.6-1.5c0-0.8,1.1-1.5,2.6-1.5V186.8z"/>
		<path class="st45" d="M302.1,51.4v6.1c2.5-0.5,4.6-1.5,5.1-4.4v-8.8L302.1,51.4z"/>
	</g>
	<g>
		<path class="st45" d="M317.6,28.3c-7.6,5.2-21.9,13.1-21.9,13.1l-13.1-21.9c0,0,15-11.1,21.9-13.1S323.7,17.7,317.6,28.3z"/>
		<path class="st48" d="M318.8,18.7l-8.3,5.1l0.8,8.2l0.7-0.2c2-1.2,3.9-2.4,5.5-3.5C319.4,25.2,319.6,21.8,318.8,18.7z"/>
		<path class="st48" d="M298.3,10c11.9,0,19.3,13.7,13.1,21.9L298.3,10z"/>
		<path class="st45" d="M308.4,18.9c7.2,12.1,0.7,29.3-11.4,36.5l-26.1-43.9C283,4.3,301.2,6.8,308.4,18.9z"/>
		<path class="st48" d="M310.5,23.7c-1.2,7.7-6.1,13-9,15.8L297,55.4C307.5,49.1,313.9,35.2,310.5,23.7z"/>
		
			<ellipse transform="matrix(0.8591 -0.5119 0.5119 0.8591 22.88 150.0382)" class="st23" cx="283.9" cy="33.5" rx="14.3" ry="25.5"/>
		<path class="st17" d="M283.5,33.7c5,8.4,12.1,13.9,18,14.6c1.2-5.9-0.6-14.3-5.3-22.2S285,12.7,279.2,11
			C277,16.5,278.5,25.4,283.5,33.7z"/>
		
			<linearGradient id="SVGID_1_" gradientUnits="userSpaceOnUse" x1="113.7621" y1="21.0956" x2="310.1832" y2="21.0956" gradientTransform="matrix(0.8591 -0.5119 0.5119 0.8591 18.8881 166.8201)">
			<stop  offset="1.937948e-07" style="stop-color:#EAEAEA;stop-opacity:0"/>
			<stop  offset="1" style="stop-color:#EAEAEA"/>
		</linearGradient>
		<path class="st49" d="M279.2,11l-169,24.5c-8.6,22.2-2.7,57.7,17.3,91.2c20,33.5,48.4,55.6,72,58.6l102-137
			c1.2-5.9-0.6-14.3-5.3-22.2S285,12.7,279.2,11z"/>
	</g>
</g>
</svg>
