<svg id="Layer_1" data-name="Layer 1" xmlns="http://www.w3.org/2000/svg" viewBox="0 0 250 250"><defs><style>.cls-1,.cls-4{fill:#38506e;}.cls-1{opacity:0;}.cls-2{opacity:0.1;}.cls-3{fill:#455e82;}.cls-5{fill:#29415b;}.cls-6{fill:#d89c88;}.cls-7{fill:#ba8170;}.cls-8{fill:#eeeff1;}.cls-9{fill:#ddd;}.cls-10{fill:#506892;}.cls-11{fill:#fff;}.cls-12{fill:#e2a78d;}.cls-13{fill:#ce8e77;}.cls-14{fill:#474744;}.cls-15{fill:#3b3a37;}.cls-16,.cls-19,.cls-22{fill:none;}.cls-16{stroke:#eeeff1;stroke-linejoin:round;stroke-width:2px;}.cls-16,.cls-22{stroke-linecap:round;}.cls-17{fill:#eab69b;}.cls-18{fill:#2d201f;}.cls-19,.cls-22{stroke:#231f20;stroke-miterlimit:10;stroke-width:0.5px;}.cls-20{fill:#443231;}.cls-21{fill:#8c5f54;}</style></defs><title>research</title><rect class="cls-1" width="250" height="250"/><ellipse class="cls-2" cx="131.09" cy="236.87" rx="27.95" ry="9.87" transform="translate(-19.3 11.76) rotate(-4.78)"/><path d="M113.66,229.22s-14.08,9.91-12.09,11.07,26.38-2,28.32-3.82.24-6.12-.57-7.15S113.66,229.22,113.66,229.22Z" transform="translate(0 0)"/><path d="M141.74,229.82s-11.54,10.42-9.55,11.58,24.34-3.57,26.23-6a4,4,0,0,0-.17-5.44C157.45,228.89,141.74,229.82,141.74,229.82Z" transform="translate(0 0)"/><path class="cls-3" d="M134.77,127.7l12.91,19.38c-.28,28.62,7.72,71.19,10.57,82.92.16.92-12.87,2-16.51,0-7-19.07-15.45-73.48-16.08-75.41C124,141.76,127.37,133,134.77,127.7Z" transform="translate(0 0)"/><path class="cls-3" d="M116,127.87s-6.83,21.72-7.52,43.47,3.47,51.07,5.17,57.88a35.38,35.38,0,0,0,15.66.1c-4.41-23.32-4.29-76.66-3.66-74.73C123.66,142.78,120.51,133.73,116,127.87Z" transform="translate(0 0)"/><path class="cls-4" d="M149.08,173.28,146.3,145l-1.26-1.9-1.42-18.24-23.3,3.33c0,.8.13,1.77.24,2.86h-5.48c-.08.3-.17.59-.26.87l-6.78-.23.41,41.68a33.28,33.28,0,0,0,9.1,2.38v-26c4.64,4.62,4.19,32.54,4.45,42.05.28,10.38,3.39,38,3.39,38l.32,0,3.61-.56c-4.26-22.55-4.29-73.13-3.72-74.73.58,3,1,5.09,1,5.26-.11-.54-2-9.56,6.26-10.9,8.22-1,10.31,11.91,11.36,24.63l-10.86.68.51,1.51a35.49,35.49,0,0,0,10.52,0c.37,4.81.63,9.48,1.06,13.23,1.63,14.12,8.18,42,8.18,42h0a16.19,16.19,0,0,0,4.37-.75,2.18,2.18,0,0,0,.21-.22A498.18,498.18,0,0,1,149.08,173.28Z" transform="translate(0 0)"/><path class="cls-5" d="M108.49,157.66c0,.54,0,8.12,0,8.68,2.49,1.59,3.1,5.77,5.85,5.82,0,0-4.28-23,1.85-23a1.94,1.94,0,0,1,1.4.67V132l-2.73-.1C112.83,138.17,109,141.65,108.49,157.66Z" transform="translate(0 0)"/><path class="cls-5" d="M144.43,175.75c1.51-.21,3.07-.46,4.83-.74l-.18-1.73-4.82.3C144.32,174.3,144.38,175,144.43,175.75Z" transform="translate(0 0)"/><path class="cls-6" d="M140,45.68s-4.24,15-1.44,16.61c-3.57,4.91-15.42,2.37-14.55-1s.45-8.18-.83-9.13S140,45.68,140,45.68Z" transform="translate(0 0)"/><path class="cls-7" d="M140,45.68c-4.95,10.27-6.89,14.15-15.68,14a23.74,23.74,0,0,0,.15-2.4Z" transform="translate(0 0)"/><path class="cls-7" d="M138.08,61.67c-9.42,4.17-11.48,3.09-14.05-.35C126.58,64.12,131.46,64,138.08,61.67Z" transform="translate(0 0)"/><path class="cls-8" d="M124,61.32c-6.1,16.11-7.72,41.92-8,62.68,0,2.14,0,4.23,0,6.25,4,1.28,10.26,1.42,18.82-2.24l.47-7.61,3.63-59.08C129.48,65.48,126.6,64.76,124,61.32Z" transform="translate(0 0)"/><path class="cls-9" d="M138.86,62.1l0-.78c-9.42,4.16-12.3,3.44-14.87,0-.26.68-.51,1.39-.75,2.11q.24-.72.51-1.41C126.36,65.46,129.47,66.25,138.86,62.1Z" transform="translate(0 0)"/><path class="cls-9" d="M134.8,128c-8.56,3.66-14.79,3.52-18.82,2.24V131c4,1.27,10.26,1.41,18.82-2.24Z" transform="translate(0 0)"/><line class="cls-10" x1="134.77" y1="127.7" x2="116.01" y2="127.87"/><path class="cls-9" d="M124,61.32c-4.88,21.17-6.31,43.07-6.31,66.89l-1.72-.34C115.67,103.27,117.65,80.53,124,61.32Z" transform="translate(0 0)"/><path class="cls-11" d="M115.87,66.42c-5.23,4.73-11.49,21.68-12.38,24.51s7.15.59,7.15.59S121.11,61.7,115.87,66.42Z" transform="translate(0 0)"/><path class="cls-8" d="M110,90.52c2-4.49,2.21-14.24,2.21-14.24L109,90.47Z" transform="translate(0 0)"/><path class="cls-11" d="M124,61.32s-3.06,1-8.17,5.1-7.89,42.9-8.79,59.24-.23,44.59,1.13,46,8.17,2.56,8.17,2.56C115.43,124.42,116.55,87.87,124,61.32Z" transform="translate(0 0)"/><path class="cls-11" d="M138.85,61.32c6,0,17.7,110.46,17.7,110.46s-14.3,4.09-23.15,2.39C129.49,151.87,133.52,61.32,138.85,61.32Z" transform="translate(0 0)"/><path class="cls-12" d="M120,112.25c2,0,6.65,3.09,6.65,3.09a15.68,15.68,0,0,1-6.8.62S118,112.25,120,112.25Z" transform="translate(0 0)"/><polygon class="cls-13" points="122.55 115.51 125.51 115.01 122.32 114.75 122.55 115.51"/><path class="cls-14" d="M84.72,90.93c1-1,28.1-.76,29.37,0s13.57,39.71,12.53,40.6-26.58.76-27.73,0S83.77,91.89,84.72,90.93Z" transform="translate(0 0)"/><path class="cls-15" d="M114.09,90.93c-1.27-.76-28.41-1-29.37,0-.07.07,0,.38,0,.84,4.3-.73,27.53-.51,28.7.2s11.76,34,12.54,39.74a1.47,1.47,0,0,0,.63-.18C127.66,130.64,115.35,91.7,114.09,90.93Z" transform="translate(0 0)"/><path class="cls-8" d="M90,89.41l1.38,4.35c4.25-.09,10.56-.14,17.45,0l-1.19-4.34C102.31,89.24,94.92,89.21,90,89.41Z" transform="translate(0 0)"/><polygon class="cls-9" points="91.36 93.76 108.81 93.76 107.62 89.42 107.15 89.42 108.3 93.32 91.23 93.36 91.36 93.76"/><polyline class="cls-16" points="93.32 89.42 95.02 86.18 100.99 86.02 104.42 89.64"/><path class="cls-17" d="M119.22,116c1.3-.17,6.29-1,6.29-1s5.9,9,4,9.87a27.81,27.81,0,0,1-7.45,2.06C120.13,127.11,117.92,116.2,119.22,116Z" transform="translate(0 0)"/><path class="cls-17" d="M120.19,123.55h-7.07c-1.41,0-1.16,2.56.72,3.14a25.65,25.65,0,0,0,8.23.25C124.19,126.64,121.7,123.55,120.19,123.55Z" transform="translate(0 0)"/><path class="cls-13" d="M112.25,124.9a13.59,13.59,0,0,0,6.62-.06l-6.62-.52A1.61,1.61,0,0,0,112.25,124.9Z" transform="translate(0 0)"/><path class="cls-17" d="M119.34,121.13h-8.13c-1.4,0-1.81,2.44.83,3.14s7.28.81,8.28.29S119.34,121.13,119.34,121.13Z" transform="translate(0 0)"/><path class="cls-13" d="M118.83,122.26l-8.51-.64h0a1.17,1.17,0,0,0-.19.51A12,12,0,0,0,118.83,122.26Z" transform="translate(0 0)"/><path class="cls-17" d="M118.85,118.4l-8.77-.15c-1.62,0-1.49,2.74.24,3.37a16.66,16.66,0,0,0,4.86,1,8.63,8.63,0,0,0,4-.49C120.18,121.52,118.85,118.4,118.85,118.4Z" transform="translate(0 0)"/><path class="cls-13" d="M118.42,119.45a.83.83,0,0,1,.43-1l-8.77-.15a1,1,0,0,0-.86.39C112.07,120.77,116.09,120.44,118.42,119.45Z" transform="translate(0 0)"/><path class="cls-17" d="M119.22,116a23,23,0,0,1-4,0c-1.89-.13-3.75-.59-4.57-.67-1.5-.13-2.17,2.45-.62,3.13a14.78,14.78,0,0,0,9,.81C120,119,120,115.91,119.22,116Z" transform="translate(0 0)"/><path class="cls-12" d="M125.4,114.55c-3.24,4.69,4.06,10.33-4.58,12.52,3,.11,5.61-1.06,8.64-2.19Z" transform="translate(0 0)"/><path class="cls-13" d="M125.51,115a17.16,17.16,0,0,0,4,9.87Z" transform="translate(0 0)"/><path class="cls-11" d="M138.85,61.32c2.27.82,8.3,2.33,11.74,7.15s9.73,30.89,9.73,37.53-10.9,7-12.27-.74S142.51,78.69,138.85,61.32Z" transform="translate(0 0)"/><path class="cls-9" d="M150.16,118.14l-.08-.54-14.69,6S144.77,120.58,150.16,118.14Z" transform="translate(0 0)"/><polygon class="cls-8" points="148.05 105.26 154.66 103.32 147.79 103.8 148.05 105.26"/><path class="cls-11" d="M125.4,114.55s19-7.87,22.65-9.29,12.27-4.31,12.27.74-1.59,7.19-5.9,9.57-24.63,10.21-24.63,10.21A37.09,37.09,0,0,1,125.4,114.55Z" transform="translate(0 0)"/><polygon class="cls-8" points="147.77 103.83 147.79 103.8 147.77 103.81 142.43 76.28 146.83 104.36 139.18 108.87 147.03 105.66 148.05 105.26 147.77 103.83"/><path class="cls-18" d="M115.91,16.74c-6.2,5.3.14,16.2-1.36,20.43l2.08-4.23,1.43-15.35S121,13.93,115.91,16.74Z" transform="translate(0 0)"/><line class="cls-19" x1="111.94" y1="36.44" x2="114.76" y2="36.04"/><path class="cls-17" d="M129.39,12.66c-11.33,0-13.36,6.46-14.21,9.7s-2.56,34,5.35,35.62c8.26-1.88,15.41-1.75,19.5-12.3,3.4,1.87,6.15-2.63,7.42-5.31s3.47-7.29-3-6.78C146.9,19.47,140.72,12.66,129.39,12.66Z" transform="translate(0 0)"/><path class="cls-6" d="M116.81,32.58s2.76,0,3.15,1.74-3.36,11-3.49,11.56c-3.34,2.36-2.28-8.33-2-13.09l2.74-.21" transform="translate(0 0)"/><path class="cls-20" d="M117.24,45.55c-1.57,0-1.93.62-2.61.62a1.29,1.29,0,0,1-1.35-1.25c0-.76.51-1.11.79-1.66s-1.45.35-1.45,1.79a2.83,2.83,0,0,0,1.81,2.81c1,.38,10.6.61,12.2,0s1.93-1.34,1.78-2.46a3.06,3.06,0,0,0-1.78-2.14c-.48-.16,1,1,1,2,.05.61-.69,1-1.88,1s-1.85-.82-4.39-.82C119.48,45.35,118.44,45.55,117.24,45.55Z" transform="translate(0 0)"/><path class="cls-12" d="M121.51,34.12c.47-1.19,1.52-1.86,5.11-1.89s4.72,1,5.17,3.6a5.55,5.55,0,0,1-1.92,5.28c-1.06.9-5.3,1.37-7-.45A7.85,7.85,0,0,1,121.51,34.12Z" transform="translate(0 0)"/><path class="cls-6" d="M137.47,40.66c-.47-.41-.09-2,.18-3.37a28,28,0,0,0,1.19-7.78c0-4.25-.92-7-4.46-8.85s-6.76,1.7-14.64,1.7a5.71,5.71,0,0,1-4.08-1.61c-.18.52-.32,1-.44,1.45a5.85,5.85,0,0,0,3.33,1.34c7.85.66,11.36-2.63,14.73-.47s4.05,5,3.69,9.2-1.82,7.17-2.72,10.83-3.71,7.41-8.85,9.76c-3.83,2-1.87,2.9-3.31,4.85,4.35-.59,15.61-2.36,17.94-12C140,45.68,143,38.6,137.47,40.66Z" transform="translate(0 0)"/><path class="cls-20" d="M137.65,37.29a28,28,0,0,0,1.19-7.78c0-4.25-.92-7.39-4.46-8.85s-6.76,1.7-14.64,1.7c-4.41,0-7-3-5.23-7s4.95-3.38,9.92-5.28,15.7-1.16,19.44,5.58,2.49,14.72,1.2,17.88c-2.42.54-3.89,4.16-5.21,7.1a2,2,0,0,1-2.39,0C137,40.25,137.38,38.69,137.65,37.29Z" transform="translate(0 0)"/><path class="cls-18" d="M143.87,15.68c-2.81-5.06-9.57-6.74-14.86-6.45,4.86.21,10.3,2,12.75,6.45,3.74,6.74,2.49,14.72,1.2,17.88-2.43.54-3.89,4.16-5.21,7.1l-.17.08a2,2,0,0,0,2.28-.08c1.32-2.94,2.79-6.56,5.21-7.1C146.36,30.4,147.62,22.42,143.87,15.68Z" transform="translate(0 0)"/><path class="cls-18" d="M119,22.33c.25,0,.51,0,.77,0,5.59,0,8.83-1.59,11.51-2C128.27,19.82,125.18,22,119,22.33Z" transform="translate(0 0)"/><path class="cls-6" d="M147.45,40.37c1.22-2.6,3.31-7-2.42-6.8-2.57.44-7.15,8.74-5,12.11C143.43,47.55,146.18,43.05,147.45,40.37Z" transform="translate(0 0)"/><path class="cls-7" d="M146.36,35c-1.91.3-2.91,1.71-3.74,3.67-.32,1.07.19,1.62,0,2.49s-1.79,1-1.79,2.14,1.21-.8,1.85-.51.51,1.14.51,1.14a3.3,3.3,0,0,0,2.17-1.27,13.83,13.83,0,0,0,2.43-5.13C147.84,36.51,148.26,34.72,146.36,35Z" transform="translate(0 0)"/><path class="cls-21" d="M144.19,40.66a2.91,2.91,0,0,0-1.44-2.26v0l-.17.46c-.2.94.23,1.48.05,2.29s-1.79,1-1.79,2.14,1.21-.8,1.85-.51A2.66,2.66,0,0,0,144.19,40.66Z" transform="translate(0 0)"/><path class="cls-20" d="M114.47,32.79l4,.29c.6,0,1.09-.52.45-1.12s-3.66-.92-4.36-.33S113.57,32.72,114.47,32.79Z" transform="translate(0 0)"/><path class="cls-20" d="M118.13,49.9h2c-.23,2.71,1.79,3.76,5.32,3a5.07,5.07,0,0,1-1.68,3.75,3.79,3.79,0,0,1-5.7.14,7,7,0,0,1-1.55-4C117.7,53.17,118.15,51.23,118.13,49.9Z" transform="translate(0 0)"/><path class="cls-18" d="M124.38,53a5.91,5.91,0,0,1-1.57,2.67,3.91,3.91,0,0,1-5,.77c.07.09.12.19.2.28a3.79,3.79,0,0,0,5.7-.14,5.07,5.07,0,0,0,1.68-3.75A10.32,10.32,0,0,1,124.38,53Z" transform="translate(0 0)"/><ellipse class="cls-20" cx="116.09" cy="36.51" rx="0.72" ry="1.05"/><ellipse class="cls-20" cx="125.58" cy="36.51" rx="0.88" ry="1.19"/><path class="cls-20" d="M130.21,33c-.85.31-6.86.24-7.5.17s-.51-1.07.06-1.47,6.62-.55,7.69-.08S131.05,32.64,130.21,33Z" transform="translate(0 0)"/><ellipse class="cls-19" cx="115.43" cy="36.44" rx="3.49" ry="4.21"/><path class="cls-17" d="M119.47,36.59c-.32.55-4.56,8.56-2.9,9.29s2.79-.72,4.91-.53c1.18.11,2-9,.8-9.06C121.32,36,119.79,36,119.47,36.59Z" transform="translate(0 0)"/><line class="cls-22" x1="144.45" y1="33.59" x2="130.84" y2="36.44"/><path class="cls-22" d="M122.41,36.44a4,4,0,0,0-3.49,0" transform="translate(0 0)"/><circle class="cls-19" cx="126.62" cy="36.44" r="4.21"/><path class="cls-7" d="M116.31,45.64a2.28,2.28,0,0,0,1.51-.28,4.84,4.84,0,0,1,2.13-.8c1-.09,1.92.35,2.33-.13s-.17-1.18-.17-1.18.87.43,1,1a.8.8,0,0,1-.58,1.08c-.46.18-.69-.09-2,0-1.13.1-2.33.72-2.87.72C116.47,46.12,116.31,45.64,116.31,45.64Z" transform="translate(0 0)"/></svg>