<svg id="Layer_1" data-name="Layer 1" xmlns="http://www.w3.org/2000/svg" viewBox="0 0 250 250"><defs><style>.cls-1,.cls-4{fill:#38506e;}.cls-1{opacity:0;}.cls-2{fill:#506892;}.cls-3{fill:#455e82;}.cls-5{fill:#29415b;}.cls-6{fill:#d89c88;}.cls-7{fill:#ba8170;}.cls-8{fill:#eeeff1;}.cls-9{fill:#ddd;}.cls-10{fill:#fff;}.cls-11{fill:#e2a78d;}.cls-12{fill:#ce8e77;}.cls-13{fill:#474744;}.cls-14{fill:#3b3a37;}.cls-15{fill:#eab69b;}.cls-16{fill:#2d201f;}.cls-17,.cls-20{fill:none;stroke:#231f20;stroke-miterlimit:10;stroke-width:0.5px;}.cls-18{fill:#443231;}.cls-19{fill:#8c5f54;}.cls-20{stroke-linecap:round;}</style></defs><title>research</title><rect class="cls-1" width="250" height="250"/><path d="M113.74,233.82s-9,4.38-7,5.54,20.72,1,22.82,0,.64-4.41-.17-5.44S113.74,233.82,113.74,233.82Z" transform="translate(0 0)"/><path d="M141.83,234.42s-8.13,4.37-6.14,5.54,20.71,1,22.82,0,.64-4.41-.17-5.44S141.83,234.42,141.83,234.42Z" transform="translate(0 0)"/><line class="cls-2" x1="134.85" y1="132.3" x2="116.1" y2="132.47"/><path class="cls-3" d="M134.85,132.3l12.91,19.38c-.27,28.62,7.72,71.19,10.58,82.92.15.92-12.87,2-16.51,0-7-19.07-15.46-73.48-16.09-75.41C124.13,146.36,127.45,137.63,134.85,132.3Z" transform="translate(0 0)"/><path class="cls-3" d="M116.1,132.47s-6.83,21.72-7.52,43.46,3.47,51.08,5.16,57.89a35.39,35.39,0,0,0,15.66.1c-4.4-23.32-4.28-76.66-3.66-74.73C123.75,147.38,120.59,138.33,116.1,132.47Z" transform="translate(0 0)"/><path class="cls-4" d="M125.74,159.18v0l-1.61-23.49h-9c-1.89,6.81-6.06,9.85-6.59,26.59,0,.54,0,8.12,0,8.68,2.48,1.59,3.09,5.77,5.84,5.82,0,0-4.28-23,1.86-23s5.56,32.35,5.85,42.73,3.38,38.05,3.38,38.05l.33,0,3.6-.56C125,210.66,125.12,157.55,125.74,159.18Z" transform="translate(0 0)"/><path class="cls-4" d="M158.34,234.6a495.89,495.89,0,0,1-9.17-56.72l-2.78-28.26L134.85,132.3l-8.63.08c-2.63,1-4.48,2.11-4.48,3.29,0,4.05,4.86,28.17,5,28.78-.11-.54-2-9.56,6.26-10.9,11.82-1.46,10.95,25.9,12.58,40s8.19,42,8.19,42h0a16.27,16.27,0,0,0,4.37-.75Z" transform="translate(0 0)"/><path class="cls-4" d="M117.64,136.64v43.73a32.93,32.93,0,0,1-9.1-2.39l-.41-41.67Z" transform="translate(0 0)"/><path class="cls-5" d="M108.58,162.26c0,.54,0,8.12,0,8.68,2.48,1.59,3.09,5.77,5.84,5.82,0,0-4.28-23,1.86-23a2,2,0,0,1,1.4.68V136.64l-2.74-.1C112.92,142.77,109.09,146.25,108.58,162.26Z" transform="translate(0 0)"/><path class="cls-4" d="M133.49,178.85l.51,1.52c6,.86,9.7.12,15.35-.76l-.18-1.73Z" transform="translate(0 0)"/><path class="cls-5" d="M144.52,180.34c1.51-.2,3.07-.45,4.83-.73l-.18-1.73-4.82.3C144.41,178.9,144.46,179.62,144.52,180.34Z" transform="translate(0 0)"/><path class="cls-4" d="M125.74,159.19c-.93-13.62,12.17-17.53,19.83-5.7l-1.87-24-23.3,3.33C120.77,139,123.4,155.69,125.74,159.19Z" transform="translate(0 0)"/><path class="cls-6" d="M140.11,50.28s-4.24,15-1.43,16.61c-3.57,4.91-15.42,2.37-14.55-1s.44-8.17-.83-9.12S140.11,50.28,140.11,50.28Z" transform="translate(0 0)"/><path class="cls-7" d="M140.11,50.28c-4.94,10.27-6.88,14.14-15.67,14a23.55,23.55,0,0,0,.14-2.4Z" transform="translate(0 0)"/><path class="cls-7" d="M138.17,66.27c-9.43,4.17-11.48,3.09-14.06-.36C126.67,68.72,131.55,68.55,138.17,66.27Z" transform="translate(0 0)"/><path class="cls-8" d="M124.11,65.91c-6.1,16.12-7.71,41.93-8,62.68,0,2.15,0,4.24,0,6.26,4,1.28,10.26,1.42,18.83-2.24l.46-7.61L139,65.91C129.56,70.08,126.69,69.36,124.11,65.91Z" transform="translate(0 0)"/><path class="cls-9" d="M138.94,66.7l.05-.79c-9.43,4.17-12.3,3.45-14.88,0-.26.69-.51,1.4-.75,2.11l.51-1.4C126.45,70.06,129.55,70.84,138.94,66.7Z" transform="translate(0 0)"/><path class="cls-9" d="M134.89,132.61c-8.57,3.65-14.79,3.52-18.83,2.24v.77c4,1.27,10.26,1.41,18.83-2.24Z" transform="translate(0 0)"/><path class="cls-9" d="M124.13,65.91c-4.89,21.18-6.31,43.07-6.32,66.9l-1.71-.34C115.75,107.87,117.74,85.13,124.13,65.91Z" transform="translate(0 0)"/><path class="cls-10" d="M116,71c-5.24,4.72-11.49,21.68-12.39,24.51s7.15.59,7.15.59S121.19,66.3,116,71Z" transform="translate(0 0)"/><path class="cls-8" d="M110.09,95.11c2-4.48,2.22-14.23,2.22-14.23L109.1,95.07Z" transform="translate(0 0)"/><path class="cls-10" d="M124.13,65.91s-3.07,1-8.17,5.11-7.9,42.89-8.8,59.24-.22,44.59,1.14,46,8.17,2.56,8.17,2.56C115.52,129,116.64,92.47,124.13,65.91Z" transform="translate(0 0)"/><path class="cls-10" d="M138.94,65.91c5.95,0,17.7,110.47,17.7,110.47s-14.3,4.09-23.15,2.39C129.57,156.47,133.6,65.91,138.94,65.91Z" transform="translate(0 0)"/><path class="cls-11" d="M120.09,116.85c2,0,6.65,3.09,6.65,3.09a15.65,15.65,0,0,1-6.79.62S118.1,116.85,120.09,116.85Z" transform="translate(0 0)"/><polygon class="cls-12" points="122.64 120.11 125.59 119.61 122.41 119.35 122.64 120.11"/><path class="cls-13" d="M84.81,95.53c1-1,28.09-.76,29.36,0s13.58,39.7,12.54,40.6-26.58.76-27.73,0S83.85,96.49,84.81,95.53Z" transform="translate(0 0)"/><path class="cls-14" d="M114.17,95.53c-1.27-.76-28.4-1-29.36,0-.07.07,0,.38,0,.84,4.3-.73,27.52-.51,28.69.2s11.77,34,12.55,39.74a1.94,1.94,0,0,0,.63-.18C127.75,135.23,115.44,96.3,114.17,95.53Z" transform="translate(0 0)"/><path class="cls-8" d="M90.06,94l1.39,4.35c4.25-.09,10.55-.14,17.44,0L107.71,94C102.4,93.84,95,93.81,90.06,94Z" transform="translate(0 0)"/><polygon class="cls-9" points="91.45 98.36 108.89 98.36 107.71 94.02 107.23 94.02 108.38 97.92 91.32 97.96 91.45 98.36"/><path class="cls-15" d="M119.3,120.63c1.31-.17,6.29-1,6.29-1s5.9,9,4,9.87a27.91,27.91,0,0,1-7.45,2.06C120.22,131.71,118,120.8,119.3,120.63Z" transform="translate(0 0)"/><path class="cls-15" d="M120.28,128.15h-7.07c-1.42,0-1.16,2.56.72,3.14a25.63,25.63,0,0,0,8.23.25C124.27,131.24,121.79,128.15,120.28,128.15Z" transform="translate(0 0)"/><path class="cls-11" d="M112.33,129.5a13.59,13.59,0,0,0,6.62-.06l-6.62-.52A1.88,1.88,0,0,0,112.33,129.5Z" transform="translate(0 0)"/><path class="cls-15" d="M119.43,125.73H111.3c-1.41,0-1.82,2.44.83,3.14s7.28.81,8.28.29S119.43,125.73,119.43,125.73Z" transform="translate(0 0)"/><path class="cls-11" d="M118.91,126.86l-8.51-.64h0a1.24,1.24,0,0,0-.18.51A11.94,11.94,0,0,0,118.91,126.86Z" transform="translate(0 0)"/><path class="cls-15" d="M118.94,123l-8.78-.15c-1.61,0-1.48,2.74.24,3.37a16.79,16.79,0,0,0,4.87,1,8.69,8.69,0,0,0,4-.49C120.27,126.12,118.94,123,118.94,123Z" transform="translate(0 0)"/><path class="cls-11" d="M118.51,124.05a.83.83,0,0,1,.43-1l-8.78-.15a1,1,0,0,0-.85.39C112.16,125.37,116.17,125,118.51,124.05Z" transform="translate(0 0)"/><path class="cls-15" d="M119.3,120.63a23.91,23.91,0,0,1-4,0c-1.9-.13-3.75-.59-4.58-.67-1.5-.13-2.16,2.45-.62,3.13a13.25,13.25,0,0,0,4.73,1.13,13.08,13.08,0,0,0,4.25-.33C120.09,123.6,120.12,120.51,119.3,120.63Z" transform="translate(0 0)"/><path class="cls-11" d="M125.49,119.15c-3.25,4.68,4.06,10.33-4.59,12.52,3,.11,5.62-1.06,8.65-2.19Z" transform="translate(0 0)"/><path class="cls-12" d="M125.59,119.61a17.24,17.24,0,0,0,4,9.87Z" transform="translate(0 0)"/><path class="cls-10" d="M138.94,65.91c2.26.83,8.29,2.34,11.74,7.15s9.72,30.9,9.72,37.54-10.89,7.05-12.26-.75S142.6,83.29,138.94,65.91Z" transform="translate(0 0)"/><path class="cls-9" d="M150.24,122.73l-.08-.53-14.69,6S144.85,125.18,150.24,122.73Z" transform="translate(0 0)"/><polygon class="cls-8" points="148.14 109.85 154.75 107.92 147.87 108.4 148.14 109.85"/><path class="cls-10" d="M125.49,119.15s19-7.87,22.65-9.3,12.26-4.3,12.26.75-1.59,7.19-5.89,9.57-24.64,10.21-24.64,10.21A37.16,37.16,0,0,1,125.49,119.15Z" transform="translate(0 0)"/><polygon class="cls-8" points="147.86 108.43 147.87 108.4 147.86 108.41 142.51 80.88 146.92 108.96 139.27 113.47 147.12 110.25 148.14 109.85 147.86 108.43"/><path class="cls-16" d="M116,21.34c-6.21,5.3.13,16.2-1.37,20.43l2.09-4.23,1.43-15.35S121.05,18.53,116,21.34Z" transform="translate(0 0)"/><line class="cls-17" x1="112.02" y1="41.04" x2="114.85" y2="40.64"/><path class="cls-15" d="M129.48,17.26c-11.33,0-13.37,6.46-14.22,9.7s-2.55,34,5.36,35.61c8.26-1.87,15.41-1.74,19.49-12.29,3.41,1.87,6.16-2.63,7.42-5.32s3.48-7.28-3-6.77C147,24.06,140.8,17.26,129.48,17.26Z" transform="translate(0 0)"/><path class="cls-6" d="M116.89,37.17s2.77,0,3.15,1.74S116.69,50,116.55,50.48c-3.33,2.35-2.27-8.33-2-13.1l2.75-.21" transform="translate(0 0)"/><path class="cls-18" d="M117.33,50.15c-1.57,0-1.93.62-2.62.62a1.28,1.28,0,0,1-1.34-1.25c0-.76.51-1.12.79-1.66s-1.45.35-1.45,1.79a2.83,2.83,0,0,0,1.8,2.81c1,.38,10.61.61,12.21,0s1.93-1.34,1.78-2.46a3.11,3.11,0,0,0-1.78-2.14c-.48-.16,1,1,1,2,0,.61-.68,1-1.87,1S124,50,121.42,50C119.56,50,118.52,50.15,117.33,50.15Z" transform="translate(0 0)"/><path class="cls-11" d="M121.6,38.72c.47-1.2,1.51-1.86,5.11-1.89s4.71,1,5.16,3.6A5.58,5.58,0,0,1,130,45.71c-1.07.9-5.3,1.37-7-.45A7.82,7.82,0,0,1,121.6,38.72Z" transform="translate(0 0)"/><path class="cls-6" d="M137.56,45.26c-.47-.41-.1-2,.17-3.37a27.6,27.6,0,0,0,1.19-7.78c0-4.25-.92-7-4.46-8.85S127.71,27,119.82,27a5.71,5.71,0,0,1-4.07-1.61c-.18.52-.33,1-.44,1.45a5.81,5.81,0,0,0,3.32,1.33c7.86.67,11.36-2.62,14.73-.46s4.06,5,3.7,9.2S135.23,44,134.34,47.7s-3.71,7.41-8.85,9.76c-3.83,2-1.88,2.9-3.31,4.85,4.34-.59,15.61-2.36,17.93-12C140.11,50.28,143.13,43.2,137.56,45.26Z" transform="translate(0 0)"/><path class="cls-18" d="M137.73,41.89a27.6,27.6,0,0,0,1.19-7.78c0-4.25-.92-7.39-4.46-8.85S127.71,27,119.82,27c-4.41,0-7-3-5.23-7s5-3.38,9.93-5.28,15.69-1.16,19.44,5.58,2.48,14.72,1.2,17.88c-2.43.54-3.9,4.16-5.22,7.1a2,2,0,0,1-2.38,0C137.09,44.85,137.46,43.29,137.73,41.89Z" transform="translate(0 0)"/><path class="cls-16" d="M144,20.28c-2.82-5.07-9.57-6.74-14.87-6.45,4.86.21,10.3,2,12.76,6.45,3.74,6.74,2.48,14.72,1.2,17.88-2.43.54-3.9,4.16-5.22,7.1l-.16.08a2,2,0,0,0,2.27-.08c1.32-2.94,2.79-6.56,5.22-7.1C146.44,35,147.7,27,144,20.28Z" transform="translate(0 0)"/><path class="cls-16" d="M119.06,26.92a6.34,6.34,0,0,0,.76,0c5.6,0,8.84-1.59,11.52-2C128.36,24.42,125.27,26.63,119.06,26.92Z" transform="translate(0 0)"/><path class="cls-6" d="M147.53,45c1.23-2.6,3.31-7-2.42-6.79-2.57.44-7.14,8.74-5,12.11C143.52,52.15,146.27,47.65,147.53,45Z" transform="translate(0 0)"/><path class="cls-7" d="M146.44,39.62c-1.9.3-2.91,1.71-3.74,3.67-.32,1.07.19,1.62,0,2.49s-1.79,1-1.79,2.13,1.22-.79,1.86-.51.51,1.15.51,1.15a3.3,3.3,0,0,0,2.17-1.27,13.86,13.86,0,0,0,2.42-5.13C147.93,41.11,148.35,39.32,146.44,39.62Z" transform="translate(0 0)"/><path class="cls-19" d="M144.28,45.26A2.89,2.89,0,0,0,142.84,43l0,0-.16.46c-.21.94.22,1.48,0,2.29s-1.79,1-1.79,2.13,1.22-.79,1.86-.51A2.63,2.63,0,0,0,144.28,45.26Z" transform="translate(0 0)"/><path class="cls-18" d="M114.55,37.38l4,.3c.6,0,1.1-.52.46-1.13s-3.67-.91-4.36-.32S113.65,37.32,114.55,37.38Z" transform="translate(0 0)"/><path class="cls-18" d="M118.21,54.49h2c-.23,2.72,1.79,3.77,5.32,3a5.1,5.1,0,0,1-1.68,3.75,3.8,3.8,0,0,1-5.7.14,7,7,0,0,1-1.56-4C117.79,57.77,118.23,55.83,118.21,54.49Z" transform="translate(0 0)"/><path class="cls-16" d="M124.46,57.63a5.87,5.87,0,0,1-1.56,2.67,3.93,3.93,0,0,1-5,.77c.07.09.13.19.21.28a3.8,3.8,0,0,0,5.7-.14,5.1,5.1,0,0,0,1.68-3.75C125.13,57.54,124.79,57.59,124.46,57.63Z" transform="translate(0 0)"/><ellipse class="cls-18" cx="116.17" cy="41.11" rx="0.72" ry="1.05"/><ellipse class="cls-18" cx="125.67" cy="41.11" rx="0.88" ry="1.19"/><path class="cls-18" d="M130.29,37.55c-.84.31-6.85.24-7.49.16s-.52-1.06.06-1.46,6.62-.55,7.69-.08S131.14,37.24,130.29,37.55Z" transform="translate(0 0)"/><ellipse class="cls-17" cx="115.51" cy="41.04" rx="3.49" ry="4.21"/><path class="cls-15" d="M119.56,41.19c-.33.55-4.56,8.56-2.91,9.29s2.8-.72,4.92-.53c1.18.11,2-9,.79-9.06C121.4,40.63,119.88,40.64,119.56,41.19Z" transform="translate(0 0)"/><line class="cls-20" x1="144.54" y1="38.19" x2="130.92" y2="41.04"/><path class="cls-20" d="M122.5,41a4,4,0,0,0-3.5,0" transform="translate(0 0)"/><circle class="cls-17" cx="126.71" cy="41.04" r="4.21"/><path class="cls-6" d="M116.4,50.24a2.33,2.33,0,0,0,1.5-.28,4.93,4.93,0,0,1,2.13-.8c1-.1,1.93.35,2.34-.13s-.18-1.18-.18-1.18.87.43,1,1a.79.79,0,0,1-.58,1.08c-.46.18-.68-.09-2,0-1.14.1-2.33.72-2.88.72C116.55,50.72,116.4,50.24,116.4,50.24Z" transform="translate(0 0)"/></svg>