<svg id="Layer_1" data-name="Layer 1" xmlns="http://www.w3.org/2000/svg" viewBox="0 0 250 250"><defs><style>.cls-1{fill:#2d201f;}.cls-15,.cls-2{fill:none;stroke:#231f20;stroke-miterlimit:10;stroke-width:0.5px;}.cls-3{fill:#d89c88;}.cls-4{fill:#ba8170;}.cls-5{fill:#eab69b;}.cls-6{fill:#506892;}.cls-7{fill:#455e82;}.cls-19,.cls-8{fill:#38506e;}.cls-9{fill:#eeeff1;}.cls-10{fill:#ddd;}.cls-11{fill:#fff;}.cls-12{fill:#443231;}.cls-13{fill:#e2a78d;}.cls-14{fill:#8c5f54;}.cls-15{stroke-linecap:round;}.cls-16{fill:#474744;}.cls-17{fill:#3b3a37;}.cls-18{fill:#ce8e77;}.cls-19{opacity:0;}</style></defs><title>research</title><path class="cls-1" d="M116,21.34c-6.21,5.3.13,16.2-1.37,20.43l2.09-4.23,1.43-15.35S121.05,18.53,116,21.34Z"/><line class="cls-2" x1="112.02" y1="41.04" x2="114.85" y2="40.64"/><path class="cls-3" d="M140.11,50.28s-4.24,15-1.43,16.61c-3.57,4.91-15.42,2.37-14.55-1s.44-8.17-.83-9.12S140.11,50.28,140.11,50.28Z"/><path class="cls-4" d="M140.11,50.28c-4.94,10.27-6.88,14.14-15.67,14a23.55,23.55,0,0,0,.14-2.4Z"/><path class="cls-5" d="M129.48,17.26c-11.33,0-13.37,6.46-14.22,9.7s-2.55,34,5.36,35.61c8.26-1.87,15.41-1.74,19.49-12.29,3.41,1.87,6.16-2.63,7.42-5.32s3.48-7.28-3-6.77C147,24.06,140.8,17.26,129.48,17.26Z"/><path class="cls-3" d="M116.89,37.17s2.77,0,3.15,1.74S116.69,50,116.55,50.48c-3.33,2.35-2.27-8.33-2-13.1l2.75-.21"/><path d="M113.74,233.82s-9,4.38-7,5.54,20.72,1,22.82,0,.64-4.41-.17-5.44S113.74,233.82,113.74,233.82Z"/><path d="M141.83,234.42s-8.13,4.37-6.14,5.54,20.71,1,22.82,0,.64-4.41-.17-5.44S141.83,234.42,141.83,234.42Z"/><line class="cls-6" x1="134.85" y1="132.3" x2="116.1" y2="132.47"/><path class="cls-6" d="M134.85,132.3l12.91,19.38c-.27,28.62,7.72,71.19,10.58,82.92.15.92-12.87,2-16.51,0-7-19.07-15.46-73.48-16.09-75.41C124.13,146.36,127.45,137.63,134.85,132.3Z"/><path class="cls-7" d="M116.1,132.47s-6.83,21.72-7.52,43.46,3.47,51.08,5.16,57.89a35.39,35.39,0,0,0,15.66.1c-4.4-23.32-4.28-76.66-3.66-74.73C123.75,147.38,120.59,138.33,116.1,132.47Z"/><path class="cls-8" d="M125.74,159.18v0l-1.61-23.49h-9c-1.89,6.81-6.06,9.85-6.59,26.59,0,.54,0,8.12,0,8.68,2.48,1.59,3.09,5.77,5.84,5.82,0,0-4.28-23,1.86-23s5.56,32.35,5.85,42.73,3.38,38.05,3.38,38.05l.33,0,3.6-.56C125,210.66,125.12,157.55,125.74,159.18Z"/><path class="cls-7" d="M125.74,159.16v0Z"/><path class="cls-7" d="M158.34,234.6a495.89,495.89,0,0,1-9.17-56.72l-2.78-28.26L134.85,132.3l-8.63.08c-2.63,1-4.48,2.11-4.48,3.29,0,4.05,4.86,28.17,5,28.78-.11-.54-2-9.56,6.26-10.9,11.82-1.46,10.95,25.9,12.58,40s8.19,42,8.19,42h0a16.27,16.27,0,0,0,4.37-.75Z"/><path class="cls-8" d="M125.74,159.19c-.93-13.62,12.17-17.53,19.83-5.7l-1.87-24-23.3,3.33C120.77,139,123.4,155.69,125.74,159.19Z"/><path class="cls-9" d="M124.11,65.91c-6.1,16.12-7.71,41.93-8,62.68,0,2.15,0,4.24,0,6.26,4,1.28,10.26,1.42,18.83-2.24l.46-7.61L139,65.91C129.56,70.08,126.69,69.36,124.11,65.91Z"/><path class="cls-10" d="M138.94,66.7l.05-.79c-9.43,4.17-12.3,3.45-14.88,0-.26.69-.51,1.4-.75,2.11l.51-1.4C126.45,70.06,129.55,70.84,138.94,66.7Z"/><path class="cls-10" d="M134.89,132.61c-8.57,3.65-14.79,3.52-18.83,2.24v.77c4,1.27,10.26,1.41,18.83-2.24Z"/><path class="cls-10" d="M124.13,65.91c-4.89,21.18-6.31,43.07-6.32,66.9l-1.71-.34C115.75,107.87,117.74,85.13,124.13,65.91Z"/><path class="cls-11" d="M116,71c-5.24,4.72-11.49,21.68-12.39,24.51s7.15.59,7.15.59S121.19,66.3,116,71Z"/><path class="cls-9" d="M110.09,95.11c2-4.48,2.22-14.23,2.22-14.23L109.1,95.07Z"/><path class="cls-11" d="M124.13,65.91s-3.07,1-8.17,5.11-7.9,42.89-8.8,59.24-.22,44.59,1.14,46,8.17,2.56,8.17,2.56C115.52,129,116.64,92.47,124.13,65.91Z"/><path class="cls-11" d="M138.94,65.91c5.95,0,17.7,110.47,17.7,110.47s-14.3,4.09-23.15,2.39C129.57,156.47,133.6,65.91,138.94,65.91Z"/><path class="cls-12" d="M117.33,50.15c-1.57,0-1.93.62-2.62.62a1.28,1.28,0,0,1-1.34-1.25c0-.76.51-1.12.79-1.66s-1.45.35-1.45,1.79a2.83,2.83,0,0,0,1.8,2.81c1,.38,10.61.61,12.21,0s1.93-1.34,1.78-2.46a3.11,3.11,0,0,0-1.78-2.14c-.48-.16,1,1,1,2,0,.61-.68,1-1.87,1S124,50,121.42,50C119.56,50,118.52,50.15,117.33,50.15Z"/><ellipse class="cls-2" cx="115.51" cy="41.04" rx="3.49" ry="4.21"/><path class="cls-5" d="M119.56,41.19c-.33.55-4.56,8.56-2.91,9.29s2.8-.72,4.92-.53c1.18.11,2-9,.79-9.06C121.4,40.63,119.88,40.64,119.56,41.19Z"/><path class="cls-13" d="M121.6,38.72c.47-1.2,1.51-1.86,5.11-1.89s4.71,1,5.16,3.6A5.58,5.58,0,0,1,130,45.71c-1.07.9-5.3,1.37-7-.45A7.82,7.82,0,0,1,121.6,38.72Z"/><path class="cls-3" d="M137.56,45.26c-.47-.41-.1-2,.17-3.37a27.6,27.6,0,0,0,1.19-7.78c0-4.25-.92-7-4.46-8.85S127.71,27,119.82,27a5.71,5.71,0,0,1-4.07-1.61c-.18.52-.33,1-.44,1.45a5.81,5.81,0,0,0,3.32,1.33c7.86.67,11.36-2.62,14.73-.46s4.06,5,3.7,9.2S135.23,44,134.34,47.7s-3.71,7.41-8.85,9.76c-3.83,2-1.88,2.9-3.31,4.85,4.34-.59,15.61-2.36,17.93-12C140.11,50.28,143.13,43.2,137.56,45.26Z"/><path class="cls-12" d="M137.73,41.89a27.6,27.6,0,0,0,1.19-7.78c0-4.25-.92-7-4.46-8.85S127.71,27,119.82,27c-4.41,0-6.63-4.26-5.23-7,2.72-5.62,5.48-3.75,9.93-5.28,6.4-1.91,15.69-1.16,19.44,5.58s2.48,14.72,1.2,17.88c-2.43.54-3.9,4.16-5.22,7.1a2,2,0,0,1-2.38,0C137.09,44.85,137.46,43.29,137.73,41.89Z"/><path class="cls-3" d="M147.53,45c1.23-2.6,3.31-7-2.42-6.79-2.57.44-7.14,8.74-5,12.11C143.52,52.15,146.27,47.65,147.53,45Z"/><path class="cls-4" d="M146.44,39.62c-1.9.3-2.91,1.71-3.74,3.67-.32,1.07.19,1.62,0,2.49s-1.79,1-1.79,2.13,1.22-.79,1.86-.51.51,1.15.51,1.15a3.3,3.3,0,0,0,2.17-1.27,13.86,13.86,0,0,0,2.42-5.13C147.93,41.11,148.35,39.32,146.44,39.62Z"/><path class="cls-14" d="M144.28,45.26A2.89,2.89,0,0,0,142.84,43l0,0-.16.46c-.21.94.22,1.48,0,2.29s-1.79,1-1.79,2.13,1.22-.79,1.86-.51A2.63,2.63,0,0,0,144.28,45.26Z"/><path class="cls-12" d="M114.55,37.38l4,.3c.6,0,1.1-.52.46-1.13s-3.67-.91-4.36-.32S113.65,37.32,114.55,37.38Z"/><path class="cls-12" d="M130.29,37.55c-.84.31-6.85.24-7.49.16s-.52-1.06.06-1.46,6.62-.55,7.69-.08S131.14,37.24,130.29,37.55Z"/><line class="cls-15" x1="144.54" y1="38.19" x2="130.92" y2="41.04"/><path class="cls-15" d="M122.5,41a4,4,0,0,0-3.5,0"/><circle class="cls-2" cx="126.71" cy="41.04" r="4.21"/><path class="cls-12" d="M118.21,54.49h2c-.23,2.72,1.79,3.77,5.32,3a5.1,5.1,0,0,1-1.68,3.75,3.8,3.8,0,0,1-5.7.14,7,7,0,0,1-1.56-4C117.79,57.77,118.23,55.83,118.21,54.49Z"/><ellipse class="cls-12" cx="116.17" cy="41.11" rx="0.72" ry="1.05"/><ellipse class="cls-12" cx="125.67" cy="41.11" rx="0.88" ry="1.19"/><path class="cls-13" d="M120.09,116.85c2,0,5.58,3.09,5.58,3.09l-6.06.13S118.1,116.85,120.09,116.85Z"/><path class="cls-16" d="M84.81,95.53c1-1,28.09-.76,29.36,0s13.58,39.7,12.54,40.6-26.58.76-27.73,0S83.85,96.49,84.81,95.53Z"/><path class="cls-17" d="M114.17,95.53c-1.27-.76-28.4-1-29.36,0-.07.07,0,.38,0,.84,4.3-.73,27.52-.51,28.69.2s11.77,34,12.55,39.74a1.94,1.94,0,0,0,.63-.18C127.75,135.23,115.44,96.3,114.17,95.53Z"/><path class="cls-9" d="M90.06,94l1.39,4.35c4.25-.09,10.55-.14,17.44,0L107.71,94C102.4,93.84,95,93.81,90.06,94Z"/><polygon class="cls-10" points="91.45 98.36 108.89 98.36 107.71 94.02 107.23 94.02 108.38 97.92 91.32 97.96 91.45 98.36"/><path class="cls-5" d="M110.72,121.57c0-1.63,15-1.63,15-1.63s6.52,8.64,3.7,9.54a58.35,58.35,0,0,1-11.12,2.06C115.34,131.71,110.72,123.21,110.72,121.57Z"/><path class="cls-13" d="M125.67,119.94c1.1,7.34,1.1,9.54-7.42,11.6a58.25,58.25,0,0,0,11.12-2.06Z"/><path class="cls-18" d="M125.67,119.94c.07,3.57.91,6.88,3.7,9.54Z"/><path class="cls-11" d="M138.94,65.91c2.26.83,8.29,2.34,11.74,7.15s9.72,30.9,9.72,37.54-10.89,7.05-12.26-.75S142.6,83.29,138.94,65.91Z"/><path class="cls-10" d="M150.24,122.73l-.08-.53-14.69,6S144.85,125.18,150.24,122.73Z"/><polygon class="cls-9" points="148.14 109.85 154.75 107.92 147.87 108.4 148.14 109.85"/><path class="cls-11" d="M125.49,119.15s19-7.87,22.65-9.3,12.26-4.3,12.26.75-1.59,7.19-5.89,9.57-24.64,10.21-24.64,10.21A37.16,37.16,0,0,1,125.49,119.15Z"/><polygon class="cls-9" points="147.86 108.43 147.87 108.4 147.86 108.41 142.51 80.88 146.92 108.96 139.27 113.47 147.12 110.25 148.14 109.85 147.86 108.43"/><path class="cls-14" d="M138.17,66.27c-9.43,4.17-11.48,3.09-14.06-.36C126.67,68.72,131.55,68.55,138.17,66.27Z"/><path class="cls-3" d="M116.4,50.24a3.33,3.33,0,0,0,1.34,0,25.12,25.12,0,0,0,2.69-.79c.94-.21,1.36.27,1.94,0s-.18-1.6-.18-1.6a2.19,2.19,0,0,1,.82,1c.17.62.11.9-.36,1.08s-.68-.09-2,0c-1.14.1-2.33.72-2.88.72C116.55,50.72,116.4,50.24,116.4,50.24Z"/><rect class="cls-19" width="250" height="250"/></svg>