<?xml version="1.0" encoding="utf-8"?>
<!-- Generator: Adobe Illustrator 19.1.1, SVG Export Plug-In . SVG Version: 6.00 Build 0)  -->
<svg version="1.1" id="Calque_1" xmlns="http://www.w3.org/2000/svg" xmlns:xlink="http://www.w3.org/1999/xlink" x="0px" y="0px"
	 viewBox="0 0 200 200" style="enable-background:new 0 0 200 200;" xml:space="preserve">
<style type="text/css">
	.st0{fill:none;stroke:#000000;stroke-width:4;stroke-miterlimit:10;}
</style>
<path d="M100,134.8c-0.3-1.8-0.5-3.3-0.6-4.3c-0.8-2.7-1.8-5.2-5-5.7c-3.4-0.4-7.5,0.5-12.9-2.4c-5.2-3.2-8.5-8.1-14-10.1
	c-0.1-0.7-0.1-1.5-0.2-2.2c2.5-3.5,3-7.4,3.6-11.3c2.4-2.3,6.7-7.9,1.8-10.9c0.7-3.4,0.7-7,0.1-11c-0.3-1.2-0.8-2.8-1.7-4.6
	c-1.5-2.6-3.3-4.3-4.6-5.2c-1.3-0.7-5.8-2.6-11.6-1.6c-3.7,0.7-7.5,2.8-7.9,4.3c0,0.1-0.2,0.7-0.6,1.2c-0.4,0.4-1,0.6-1.3,0.7
	c-0.3,0.2-0.7,0.6-1.1,1c-0.9,1.1-1,2.3-1,2.8c-1.2,4.6-1.1,8.6-0.4,12.4c-3.4,4-0.2,8.6,3.6,10.3c0.6,4.3,1.9,8.3,4,10.9v2.8
	c-4.4,2.6-7.5,5-11.4,8.5c-4.9,2.3-9.3,3.4-13.4,4c-4.7,0.6-4.9,3.5-5.5,6.3c-0.4,0.9-0.9,2.3-1.2,3.9H100z"/>
<path class="st0" d="M180,159.5H20c-5.5,0-10-4.5-10-10v-99c0-5.5,4.5-10,10-10h160c5.5,0,10,4.5,10,10v99
	C190,155,185.5,159.5,180,159.5z"/>
<rect x="110.3" y="65.2" width="66.7" height="6.1"/>
<rect x="110.3" y="81.1" width="46.7" height="6.1"/>
<rect x="110.3" y="96.9" width="66.7" height="6.1"/>
<rect x="110.3" y="127.6" width="66.7" height="6.1"/>
</svg>
