<?xml version="1.0" encoding="utf-8"?>
<!-- Generator: Adobe Illustrator 19.1.1, SVG Export Plug-In . SVG Version: 6.00 Build 0)  -->
<svg version="1.1" id="Calque_1" xmlns="http://www.w3.org/2000/svg" xmlns:xlink="http://www.w3.org/1999/xlink" x="0px" y="0px"
	 viewBox="0 0 200 200" style="enable-background:new 0 0 200 200;" xml:space="preserve">
<style type="text/css">
	.st0{fill:#FFFFFF;}
</style>
<g>
	<g>
		<path class="st0" d="M0.7,196.6c0-63.7,0-127.3,0-191c66.9,0,133.8,0,200.6,0c0,63.7,0,127.3,0,191
			C134.5,196.6,67.6,196.6,0.7,196.6z M10.2,66.7c0.7,13.8,5.6,29.3,14.6,43.9c9.2,14.9,20,28.4,32.2,40.8
			c9.4,9.5,19.3,18.3,30.5,25.7c9.2,6.2,19,11,29.6,14.2c16.2,4.9,32.3,4.4,47.8-2.5c9.8-4.3,17.5-11.4,25-18.9
			c4.2-4.2,5.2-9.8,1.8-14.3c-7.9-10.7-18.3-18.8-29.6-25.4c-8.1-4.7-16.7-5.3-24.6,1.2c-3.9,3.2-7.7,6.5-11.5,9.9
			c-4.3,4-9.3,6.2-14.9,4c-5.3-2.1-11-4.3-15.2-8c-8.1-7-15.4-14.9-22.8-22.7c-5.9-6.3-11-13.3-13.9-21.6c-3.3-9.4-1.5-15,6.4-21
			c4-3,8.1-6.1,11.7-9.6c4.8-4.5,6.2-10.4,4.4-16.7C78,31.8,69.3,20.5,59.1,10.6c-4-3.9-9.5-4.9-14.4-1.9
			c-9.4,5.6-17.9,12.5-24.3,21.3C13.2,39.8,10.3,51.3,10.2,66.7z"/>
		<path d="M10.2,66.7c0.1-15.4,2.9-26.9,10.2-36.7c6.4-8.8,14.9-15.7,24.3-21.3c5-3,10.5-1.9,14.4,1.9c10.3,10,18.9,21.2,22.8,35.3
			c1.7,6.3,0.3,12.2-4.4,16.7c-3.6,3.5-7.7,6.6-11.7,9.6c-8,5.9-9.7,11.6-6.4,21c2.9,8.3,8,15.3,13.9,21.6
			c7.3,7.8,14.7,15.7,22.8,22.7c4.2,3.7,9.9,5.9,15.2,8c5.6,2.2,10.6,0,14.9-4c3.7-3.4,7.6-6.7,11.5-9.9c7.9-6.5,16.5-5.9,24.6-1.2
			c11.3,6.6,21.6,14.7,29.6,25.4c3.3,4.5,2.4,10.1-1.8,14.3c-7.4,7.5-15.2,14.6-25,18.9c-15.6,6.9-31.6,7.3-47.8,2.5
			c-10.6-3.2-20.4-8-29.6-14.2c-11.1-7.4-21.1-16.2-30.5-25.7c-12.2-12.5-23-25.9-32.2-40.8C15.8,96,10.9,80.5,10.2,66.7z"/>
	</g>
</g>
</svg>
