<?xml version="1.0" encoding="utf-8"?>
<!-- Generator: Adobe Illustrator 23.0.3, SVG Export Plug-In . SVG Version: 6.00 Build 0)  -->
<svg version="1.1" id="Layer_1" xmlns="http://www.w3.org/2000/svg" xmlns:xlink="http://www.w3.org/1999/xlink" x="0px" y="0px"
	 viewBox="0 0 100 127.19" style="enable-background:new 0 0 100 127.19;" xml:space="preserve">
<style type="text/css">
	.st0{fill:#F84B0F;}
</style>
<g>
	<path class="st0" d="M52.24,113.07c-1.46,0-2.92,0-4.39,0c-0.14-0.03-0.27-0.09-0.41-0.1c-0.71-0.07-1.42-0.13-2.13-0.19
		c-1.76-0.14-3.49-0.42-5.22-0.76c-4.35-0.87-8.5-2.3-12.46-4.3c-8-4.05-14.46-9.83-19.39-17.31c-3.51-5.34-5.89-11.16-7.16-17.42
		c-0.48-2.35-0.78-4.73-0.9-7.13c-0.02-0.4-0.12-0.8-0.19-1.21c0-1.05,0-2.1,0-3.15c0.04-0.16,0.11-0.33,0.13-0.49
		c0.06-0.73,0.11-1.46,0.17-2.18c0.19-2.52,0.58-5.01,1.19-7.46C4.82,38.15,12.25,27.9,23.75,20.6c4.93-3.13,10.3-5.24,16.02-6.43
		c1.6-0.33,3.22-0.56,4.83-0.77c1.07-0.14,2.15-0.15,3.23-0.22c0.23-0.02,0.46-0.07,0.7-0.11c1.02,0,2.03,0,3.05,0
		c0.25,0.04,0.5,0.1,0.74,0.1c1.7,0.03,3.38,0.23,5.06,0.47c2.55,0.36,5.04,0.93,7.5,1.7c15.43,4.79,27.66,16.84,32.67,32.2
		c1.36,4.17,2.21,8.44,2.35,12.83c0.01,0.19,0.07,0.37,0.1,0.55c0,1.43,0,2.86,0,4.29c-0.04,0.2-0.1,0.4-0.11,0.6
		c-0.03,2.31-0.37,4.59-0.81,6.85c-1.14,5.87-3.26,11.37-6.41,16.46c-5.62,9.08-13.34,15.74-23.15,19.95
		c-3.23,1.39-6.58,2.39-10.04,3.04c-1.92,0.36-3.85,0.63-5.8,0.76C53.21,112.91,52.72,113.01,52.24,113.07z M87.23,55.49
		c-7.09,0-14.13,0-21.15,0c-0.12,0.49-0.11,5.51,0.03,5.95c2.48,0,4.98,0,7.54,0c0,7.45,0,14.84,0,22.23
		c0.53,0.11,5.57,0.1,5.98-0.02c0-7.38,0-14.77,0-22.22c0.56,0,1.06,0,1.57,0c0.51,0,1.02,0,1.53,0c0.49,0,0.98,0,1.48,0
		c0.51,0,1.02,0.01,1.53,0c0.5-0.01,1.01,0.04,1.51-0.04C87.23,59.4,87.23,57.47,87.23,55.49z M42.25,55.48
		c-0.1,0.84-0.08,5.56,0.04,5.95c0.22,0,0.46-0.02,0.69,0c0.69,0.06,1.4,0.08,2.08,0.2c1.45,0.26,2.22,1.06,2.5,2.5
		c0.16,0.83,0.16,1.68,0.04,2.51c-0.24,1.62-1.1,2.48-2.72,2.74c-0.59,0.1-1.2,0.16-1.8,0.17c-1.57,0.03-3.15,0.01-4.72,0.02
		c-0.17,0-0.34,0-0.51,0c-0.13,0.49-0.12,4.67,0.01,5.1c0.16,0,0.33,0,0.5,0c1.02,0,2.03,0.02,3.05-0.01
		c0.39-0.01,0.59,0.13,0.77,0.46c1.54,2.85,3.1,5.69,4.65,8.53c0.16,0.3,0.35,0.43,0.7,0.43c1.91-0.02,3.81-0.01,5.72-0.01
		c0.15,0,0.3-0.02,0.55-0.04c-1.9-3.41-3.75-6.74-5.63-10.12c0.21-0.08,0.39-0.15,0.56-0.21c2.68-1.03,4.38-2.92,5.01-5.72
		c0.48-2.1,0.46-4.23,0.01-6.33c-0.28-1.29-0.84-2.46-1.76-3.43c-0.98-1.03-2.19-1.66-3.53-2.08c-1.34-0.42-2.72-0.6-4.12-0.66
		C43.67,55.45,42.97,55.48,42.25,55.48z M18.96,61.44c0,2.54,0,5,0,7.46c0,2.48,0,4.95,0,7.43c0,2.45,0,4.91,0,7.39
		c2.02,0,3.96,0,5.96,0c0.01-0.25,0.03-0.48,0.03-0.71c0-4.46,0-8.92,0-13.39c0-4.48,0-8.96,0-13.43c0-0.23-0.03-0.46-0.04-0.68
		c-3.96,0-7.86,0-11.78,0c-0.02,0.15-0.04,0.28-0.04,0.4c0,1.68,0,3.37,0,5.05c0,0.15,0.03,0.3,0.06,0.49
		C15.1,61.44,17,61.44,18.96,61.44z M28.41,55.5c0,9.44,0,18.82,0,28.19c0.68,0.11,5.59,0.08,5.95-0.05c0-7.38,0-14.77,0-22.22
		c1.56,0,3.08,0,4.59,0c0.12-0.51,0.11-5.56-0.01-5.92C35.44,55.5,31.94,55.5,28.41,55.5z M57.21,55.5c0,9.44,0,18.82,0,28.19
		c0.62,0.11,5.58,0.08,5.9-0.03c0-9.38,0-18.76,0-28.16C61.13,55.5,59.19,55.5,57.21,55.5z M20.93,47.23
		c-0.07,2.66,2.02,5.46,5.41,5.49c3.06,0.03,5.47-2.34,5.49-5.41c0.02-3.39-2.78-5.48-5.42-5.49C23.44,41.8,20.91,44.24,20.93,47.23
		z"/>
</g>
</svg>
