<svg id="logo-white" xmlns="http://www.w3.org/2000/svg" xmlns:xlink="http://www.w3.org/1999/xlink" viewBox="0 0 100 100"><defs><style>.cls-1{opacity:0.8;}.cls-2{fill:url(#radial-gradient);}.cls-3{fill:url(#radial-gradient-2);}.cls-4{fill:url(#radial-gradient-3);}.cls-5{fill:url(#radial-gradient-4);}</style><radialGradient id="radial-gradient" cx="81.48" cy="46.3" r="53.55" gradientUnits="userSpaceOnUse"><stop offset="0" stop-color="#272727" stop-opacity="0.2"/><stop offset="0.07" stop-color="#272727" stop-opacity="0.36"/><stop offset="0.29" stop-color="#272727" stop-opacity="0.72"/><stop offset="0.55" stop-color="#272727" stop-opacity="0.94"/><stop offset="1" stop-color="#272727"/></radialGradient><radialGradient id="radial-gradient-2" cx="44.94" cy="-0.08" r="53.67" xlink:href="#radial-gradient"/><radialGradient id="radial-gradient-3" cx="20.67" cy="60.3" r="48.52" xlink:href="#radial-gradient"/><radialGradient id="radial-gradient-4" cx="56.9" cy="79.9" r="32.61" xlink:href="#radial-gradient"/></defs><title>logo-title</title><g id="Fill" class="cls-1"><polygon class="cls-2" points="55.17 0 44.83 0 70.26 44.51 50 62.24 56.7 68.1 81.63 46.29 55.17 0"/><polygon class="cls-3" points="44.83 0 18.37 46.29 20.69 60.34 44.83 18.1 63.35 50.51 70.26 44.51 44.83 0"/><polygon class="cls-4" points="32.17 58.36 50 27.16 44.83 18.1 20.69 60.34 43.1 80 56.9 80 32.17 58.36"/><polygon class="cls-5" points="56.7 68.1 36.63 50.55 32.17 58.36 56.9 80 79.31 60.34 81.63 46.29 56.7 68.1"/></g></svg>