<?xml version="1.0" encoding="utf-8"?>
<!-- Generator: Adobe Illustrator 22.1.0, SVG Export Plug-In . SVG Version: 6.00 Build 0)  -->
<svg version="1.1" id="logo-white" xmlns="http://www.w3.org/2000/svg" xmlns:xlink="http://www.w3.org/1999/xlink" x="0px" y="0px"
	 viewBox="0 0 100 100" style="enable-background:new 0 0 100 100;" xml:space="preserve">
<style type="text/css">
	.st0{fill:url(#SVGID_1_);}
	.st1{fill:url(#SVGID_2_);}
	.st2{fill:url(#SVGID_3_);}
	.st3{fill:url(#SVGID_4_);}
</style>
<title>logo</title>
<g id="Fill">
	
		<radialGradient id="SVGID_1_" cx="81.48" cy="53.7" r="53.55" gradientTransform="matrix(1 0 0 -1 0 100)" gradientUnits="userSpaceOnUse">
		<stop  offset="0" style="stop-color:#FFFFFF"/>
		<stop  offset="1" style="stop-color:#FFFFFF;stop-opacity:0.3"/>
	</radialGradient>
	<polygon class="st0" points="55.2,0 44.8,0 70.3,44.5 50,62.2 56.7,68.1 81.6,46.3 	"/>
	
		<radialGradient id="SVGID_2_" cx="44.94" cy="100.08" r="53.67" gradientTransform="matrix(1 0 0 -1 0 100)" gradientUnits="userSpaceOnUse">
		<stop  offset="0" style="stop-color:#FFFFFF"/>
		<stop  offset="1" style="stop-color:#FFFFFF;stop-opacity:0.3"/>
	</radialGradient>
	<polygon class="st1" points="44.8,0 18.4,46.3 20.7,60.3 44.8,18.1 63.3,50.5 70.3,44.5 	"/>
	
		<radialGradient id="SVGID_3_" cx="20.67" cy="39.7" r="48.52" gradientTransform="matrix(1 0 0 -1 0 100)" gradientUnits="userSpaceOnUse">
		<stop  offset="0" style="stop-color:#FFFFFF"/>
		<stop  offset="1" style="stop-color:#FFFFFF;stop-opacity:0.3"/>
	</radialGradient>
	<polygon class="st2" points="32.2,58.4 50,27.2 44.8,18.1 20.7,60.3 43.1,80 56.9,80 	"/>
	
		<radialGradient id="SVGID_4_" cx="56.9" cy="20.1" r="32.61" gradientTransform="matrix(1 0 0 -1 0 100)" gradientUnits="userSpaceOnUse">
		<stop  offset="0" style="stop-color:#FFFFFF"/>
		<stop  offset="1" style="stop-color:#FFFFFF;stop-opacity:0.3"/>
	</radialGradient>
	<polygon class="st3" points="56.7,68.1 36.6,50.5 32.2,58.4 56.9,80 79.3,60.3 81.6,46.3 	"/>
</g>
</svg>
