<?xml version="1.0" encoding="utf-8"?>
<!-- Generator: Adobe Illustrator 23.0.6, SVG Export Plug-In . SVG Version: 6.00 Build 0)  -->
<svg version="1.1" xmlns="http://www.w3.org/2000/svg" xmlns:xlink="http://www.w3.org/1999/xlink" x="0px" y="0px"
	 viewBox="0 0 40 40" style="enable-background:new 0 0 40 40;" xml:space="preserve">
<style type="text/css">
	.st0{fill:none;stroke:#000000;stroke-width:10.6667;stroke-linecap:round;stroke-miterlimit:10;}
	.st1{fill:none;stroke:#000000;stroke-width:10.6667;stroke-miterlimit:10;}
	.st2{fill:#547DBF;}
</style>
<g id="Monogram_Original_Model">
</g>
<g id="Monogram_Blue_website">
	<path class="st2" d="M35.53,17.65h-2.5C31.86,7.72,23.41,0,13.18,0h-2.35H8.47v4.71h2.35v4.12H8.47v4.71h2.35v12.94H8.47v4.71h2.35
		v4.12H8.47V40h2.35h2.35c10.23,0,18.69-7.72,19.86-17.65h2.5V17.65z M15.53,13.97c2.41,0.94,4.12,3.29,4.12,6.03
		c0,2.74-1.71,5.08-4.12,6.03V13.97z M15.53,35.11v-4.19c5.04-1.08,8.82-5.57,8.82-10.93s-3.79-9.84-8.82-10.93V4.89
		c6.55,1.02,11.74,6.21,12.76,12.76h-2.17v4.71h2.17C27.27,28.91,22.08,34.1,15.53,35.11z"/>
</g>
</svg>
