<?xml version="1.0" encoding="utf-8"?>
<!-- Generator: Adobe Illustrator 23.0.3, SVG Export Plug-In . SVG Version: 6.00 Build 0)  -->
<svg version="1.1" id="Layer_1" xmlns="http://www.w3.org/2000/svg" xmlns:xlink="http://www.w3.org/1999/xlink" x="0px" y="0px"
	 viewBox="0 0 100 127.19" style="enable-background:new 0 0 100 127.19;" xml:space="preserve">
<style type="text/css">
	.st0{fill:none;}
</style>
<rect class="st0" width="100" height="127.19"/>
<g>
	<g>
		<path d="M16.26,35.85c-0.64,0-1.19-0.54-1.19-1.21V21.31c0-5.27,4.15-9.57,9.25-9.57h12.88c0.64,0,1.19,0.54,1.19,1.21
			s-0.52,1.21-1.19,1.21H24.32c-3.81,0-6.9,3.19-6.9,7.15v13.33C17.42,35.3,16.9,35.85,16.26,35.85z"/>
	</g>
	<g>
		<path d="M69.45,35.85h-4.8c-5.09,0-9.25-4.3-9.25-9.57V12.95c0-0.67,0.52-1.21,1.19-1.21s1.19,0.54,1.19,1.21v13.33
			c0,3.93,3.09,7.15,6.9,7.15h4.8c3.81,0,6.9-3.19,6.9-7.15V12.95c0-0.67,0.52-1.21,1.19-1.21c0.67,0,1.19,0.54,1.19,1.21v13.33
			C78.7,31.54,74.54,35.85,69.45,35.85z"/>
	</g>
	<g>
		<path d="M37.21,115.45H24.32c-5.09,0-9.25-4.3-9.25-9.57v-4.97c0-5.27,4.15-9.57,9.25-9.57h11.7V81.9c0-0.67,0.52-1.21,1.19-1.21
			c0.64,0,1.19,0.54,1.19,1.21v32.34C38.39,114.91,37.85,115.45,37.21,115.45z M24.32,93.77c-3.81,0-6.9,3.19-6.9,7.15v4.97
			c0,3.93,3.09,7.15,6.9,7.15h11.7V93.77H24.32z"/>
	</g>
	<g>
		<path d="M74.59,115.45h-5.81c-5.09,0-9.25-4.3-9.25-9.57v-4.97c0-5.27,4.15-9.57,9.25-9.57h5.81c5.09,0,9.25,4.3,9.25,9.57v4.97
			C83.84,111.15,79.69,115.45,74.59,115.45z M68.78,93.77c-3.81,0-6.9,3.19-6.9,7.15v4.97c0,3.93,3.09,7.15,6.9,7.15h5.81
			c3.81,0,6.9-3.19,6.9-7.15v-4.97c0-3.93-3.09-7.15-6.9-7.15H68.78z"/>
	</g>
	<path d="M59.14,48.49c-0.67,0-1.19,0.54-1.19,1.21v13.33c0,3.96-3.09,7.15-6.9,7.15H38.86V49.7c0-0.67-0.52-1.21-1.19-1.21
		c-0.67,0-1.19,0.54-1.19,1.21v20.47H24.35c-3.81,0-6.9-3.21-6.9-7.15V49.7c0-0.67-0.52-1.21-1.19-1.21c-0.67,0-1.19,0.54-1.19,1.21
		v13.33c0,5.27,4.15,9.57,9.25,9.57h26.71c5.09,0,9.25-4.3,9.3-9.57V49.7C60.33,49.04,59.78,48.49,59.14,48.49z"/>
	<g>
		<path d="M78.75,72.6c-0.64,0-1.19-0.54-1.19-1.21V49.7c0-0.67,0.52-1.21,1.19-1.21c0.64,0,1.19,0.54,1.19,1.21v21.69
			C79.94,72.06,79.42,72.6,78.75,72.6z"/>
	</g>
</g>
</svg>
