<?xml version="1.0" encoding="utf-8"?>
<!-- Generator: Adobe Illustrator 23.0.3, SVG Export Plug-In . SVG Version: 6.00 Build 0)  -->
<svg version="1.1" id="Layer_1" xmlns="http://www.w3.org/2000/svg" xmlns:xlink="http://www.w3.org/1999/xlink" x="0px" y="0px"
	 viewBox="0 0 100 127.19" style="enable-background:new 0 0 100 127.19;" xml:space="preserve">
<style type="text/css">
	.st0{fill:#231F20;}
	.st1{fill:#DB1D2B;}
	.st2{fill:#F47216;}
</style>
<g>
	<g>
		<path class="st0" d="M48.31,92.14c0,2.79,0,5.39,0,8.06c-1.18,0-2.29,0-3.49,0c0-8.23,0-16.45,0-24.75c1.05,0,2.12,0,3.24,0
			c0.08,0.72,0.16,1.43,0.26,2.3c2.85-2.48,6.07-3.01,9.53-2.33c2.26,0.45,4.22,1.5,5.64,3.38c2.77,3.67,2.37,10.33-0.75,13.51
			C60.05,95.05,53.17,96.67,48.31,92.14z M54.96,91.7c4.15,0.03,6.62-2.45,6.62-6.67c0-4.11-2.44-6.64-6.45-6.65
			c-4.14-0.02-6.81,2.54-6.82,6.55C48.29,89.15,50.75,91.66,54.96,91.7z"/>
		<path class="st0" d="M96.46,77.71c0.1-0.83,0.18-1.54,0.26-2.28c1.1,0,2.15,0,3.28,0c0,6.49,0,12.97,0,19.51
			c-1.06,0-2.11,0-3.26,0c-0.09-0.76-0.18-1.53-0.28-2.42c-3.08,2.44-6.5,3.03-10.19,2.04c-2.14-0.58-3.9-1.74-5.17-3.6
			c-2.59-3.8-2.11-9.86,1.02-12.94C85.22,74.95,91.7,73.68,96.46,77.71z M89.98,91.69c4.13-0.1,6.59-2.7,6.52-6.85
			c-0.07-3.97-2.85-6.55-6.95-6.47c-3.93,0.08-6.43,2.88-6.32,7.07C83.33,89.16,86.17,91.79,89.98,91.69z"/>
		<path class="st0" d="M42.66,85.13c-0.06,5.66-3.55,9.47-9.25,9.83c-1.91,0.12-3.92-0.01-5.77-0.49
			c-4.59-1.17-7.22-5.36-6.75-10.31c0.5-5.31,4.09-8.69,9.68-8.94c1.66-0.07,3.39,0.05,4.99,0.46
			C40.22,76.86,42.71,80.29,42.66,85.13z M31.73,91.78c0.88-0.13,1.67-0.18,2.43-0.36c2.92-0.68,4.59-2.81,4.72-5.91
			c0.13-3.4-1.26-5.69-4.24-6.53c-1.27-0.36-2.67-0.48-3.99-0.39c-3.67,0.25-5.83,2.57-6.01,6.21c-0.16,3.27,1.45,5.67,4.44,6.54
			C29.96,91.59,30.89,91.64,31.73,91.78z"/>
		<path class="st0" d="M0,90.56c1.11-0.47,2.15-0.91,3.24-1.37c1.2,1.89,3.09,2.35,5.08,2.44c1.34,0.06,2.69-0.08,4.04-0.19
			c0.41-0.03,0.83-0.22,1.22-0.4c0.89-0.42,1.74-0.94,1.71-2.08c-0.02-1.15-0.96-1.56-1.85-1.78c-2.01-0.5-4.06-0.85-6.08-1.33
			c-1.31-0.31-2.62-0.66-3.89-1.13c-1.83-0.68-3.1-1.86-3.12-4c-0.03-2.23,1.12-3.68,3.04-4.56c2.82-1.29,5.79-1.24,8.74-0.67
			c1.31,0.25,2.62,0.72,3.8,1.33c0.89,0.46,1.59,1.32,2.53,2.13c-1.36,0.58-2.44,1.04-3.48,1.48c-2.69-2.61-5.88-2.52-9.16-1.79
			c-0.8,0.18-1.45,0.69-1.49,1.63c-0.05,0.94,0.64,1.41,1.36,1.6c1.97,0.53,3.98,0.91,5.96,1.41c1.62,0.41,3.31,0.73,4.82,1.4
			c3.19,1.42,3.86,5.19,1.42,7.7c-0.72,0.73-1.64,1.39-2.6,1.74c-3.57,1.33-7.22,1.48-10.86,0.22C2.5,93.72,0.94,92.55,0,90.56z"/>
		<path class="st0" d="M67.74,75.44c1.19,0,2.27,0,3.41,0c0.08,0.82,0.16,1.61,0.23,2.3c1.27-0.65,2.5-1.49,3.86-1.91
			c1.35-0.41,2.83-0.4,4.36-0.58c0,1.28,0,2.32,0,3.38c-0.94,0.1-1.89,0.14-2.81,0.3c-3.43,0.6-5.42,3-5.42,6.48
			c0,2.8,0,5.61,0,8.41c0,0.35,0,0.71,0,1.11c-1.25,0-2.4,0-3.62,0C67.74,88.45,67.74,81.98,67.74,75.44z"/>
	</g>
	<g>
		<path class="st1" d="M66.83,53.9c-3.94,1.42-7.81,3.12-11.84,4.21c-10.35,2.79-20.87,3.69-31.52,1.94
			c-7.91-1.3-12.32-6.25-12.74-14.35c-0.1-1.83,0.01-3.75,0.44-5.53c0.7-2.86,2.53-4.34,5.37-3.7c5.08,1.13,10.12,2.57,15.02,4.3
			c9.71,3.45,19.31,7.21,28.98,10.78c1.99,0.74,4.09,1.19,6.14,1.77C66.73,53.51,66.78,53.71,66.83,53.9z"/>
		<path class="st1" d="M28.97,6.99c4.24-1.47,8.19-3.11,12.27-4.21C51.9-0.08,62.73-0.93,73.61,1.17
			c8.43,1.62,13.76,11.01,11.25,19.35c-1.02,3.39-3.11,4.95-6.47,3.92c-7.72-2.36-15.35-5.05-22.99-7.67
			c-8.59-2.95-17.16-5.98-25.73-8.99C29.57,7.74,29.5,7.58,28.97,6.99z"/>
		<path class="st2" d="M68.81,53.33c1.45-1.6,2.95-2.87,3.97-4.45c2.31-3.59,1.51-7.34-0.24-10.84c-1.43-2.84-3.29-5.47-5.05-8.34
			c0.44,0.1,0.87,0.1,1.18,0.3c4.77,3.02,9.63,5.92,14.23,9.19c1.92,1.37,3.54,3.38,4.82,5.4c2.4,3.8,0.86,7.79-3.39,9.27
			c-3.83,1.34-7.76,1-11.66,0.31C71.41,53.96,70.17,53.64,68.81,53.33z"/>
		<path class="st2" d="M26.92,7.75c-1.33,1.55-2.95,3.01-4.04,4.78c-1.79,2.93-1.36,6.16-0.01,9.09c1.21,2.65,2.9,5.08,4.4,7.59
			c0.39,0.65,0.9,1.23,1.4,1.9c-0.34,0.13-0.51,0.25-0.58,0.21c-6.1-3.2-12.14-6.52-17.1-11.41c-1.11-1.09-2.13-2.36-2.89-3.72
			c-2.13-3.79-0.7-7.5,3.36-9.05C15.07,5.76,23.5,6.15,26.92,7.75z"/>
	</g>
	<g>
		<path class="st0" d="M55.12,118.26c-5.6,0-11.16,0-16.79,0c0.11,1.66,0.91,2.75,2.04,3.64c2.97,2.35,7.46,2.34,10.71-0.01
			c0.24-0.17,0.48-0.36,0.81-0.61c0.86,0.76,1.71,1.52,2.61,2.33c-1.87,1.8-4,2.89-6.48,3.23c-3.18,0.43-6.27,0.18-9.08-1.5
			c-3.49-2.08-5.07-5.8-4.4-10.16c0.61-3.97,3.45-7.01,7.44-7.97c5-1.2,9.73,0.59,11.98,4.57
			C55.08,113.74,55.46,115.87,55.12,118.26z M51.02,115.21c0.36-1.94-2.04-4.77-5.58-4.85c-3.76-0.09-6.98,2.15-6.93,4.85
			C42.68,115.21,46.86,115.21,51.02,115.21z"/>
		<path class="st0" d="M100,126.92c-1.13,0-2.19,0-3.29,0c-0.09-0.8-0.17-1.55-0.26-2.47c-2.38,1.97-5.06,2.75-8.01,2.49
			c-2.97-0.26-5.55-1.36-7.35-3.87c-2.68-3.74-2.35-9.73,0.69-12.99c3.54-3.8,8.97-4.04,14.68-0.61c0.09-0.74,0.18-1.45,0.27-2.21
			c1.08,0,2.13,0,3.27,0C100,113.78,100,120.32,100,126.92z M89.89,123.65c4.24-0.09,6.69-2.72,6.59-7.06
			c-0.09-3.9-2.93-6.48-7.02-6.38c-3.89,0.1-6.46,2.89-6.37,6.92C83.17,121.04,85.99,123.74,89.89,123.65z"/>
		<path class="st0" d="M18.62,110.82c-1.43,0.6-2.52,1.07-3.65,1.55c-0.88-1.39-2.26-1.94-3.74-2.05c-1.64-0.12-3.3,0.01-4.95,0.07
			c-0.31,0.01-0.64,0.19-0.92,0.35c-1.36,0.76-1.42,2.22,0,2.83c1.32,0.58,2.78,0.88,4.19,1.22c1.91,0.46,3.86,0.73,5.74,1.27
			c1.8,0.51,3.4,1.42,4.01,3.4c0.67,2.2-0.28,4.53-2.4,5.95c-1.65,1.11-3.54,1.51-5.47,1.68c-3.1,0.27-6.13,0.08-8.85-1.67
			c-1.09-0.7-1.95-1.59-2.56-2.9c1.1-0.47,2.15-0.92,3.18-1.36c2.45,2.51,7.53,3.35,10.66,1.78c0.29-0.15,0.58-0.34,0.83-0.55
			c1.16-1.01,1.07-2.4-0.36-2.94c-1.57-0.59-3.27-0.86-4.9-1.28c-2.02-0.52-4.08-0.96-6.06-1.61c-1.68-0.55-2.86-1.72-3.01-3.61
			c-0.16-2.01,0.66-3.56,2.4-4.59c2.48-1.46,5.22-1.62,7.94-1.24c1.81,0.25,3.62,0.83,5.32,1.54
			C16.94,109.04,17.64,109.98,18.62,110.82z"/>
		<path class="st0" d="M33.61,123.48c0,0.98,0,1.97,0,3.12c-2.59,0.29-5.19,0.78-7.6-0.77c-1.32-0.85-2.03-2.18-2.09-3.69
			c-0.13-3.42-0.13-6.85-0.17-10.28c-0.01-0.46,0-0.92,0-1.46c-1.28,0-2.47,0-3.73,0c0-1.07,0-2.05,0-3.16c1.2,0,2.41,0,3.73,0
			c0-1.35,0.04-2.58-0.02-3.8c-0.04-0.77,0.24-0.99,0.97-0.95c0.86,0.05,1.72,0.01,2.68,0.01c0,1.59,0,3.08,0,4.67
			c2.05,0,4,0,6.02,0c0,1.09,0,2.07,0,3.16c-1.92,0-3.87,0-5.83,0c-0.07,0.22-0.13,0.34-0.13,0.45c0,3.3-0.03,6.59,0.03,9.89
			c0.04,1.95,0.96,2.85,2.92,2.93C31.44,123.66,32.5,123.53,33.61,123.48z"/>
		<path class="st0" d="M57.86,107.26c1.2,0,2.29,0,3.44,0c0.08,0.83,0.16,1.62,0.26,2.6c2.36-2.22,5.12-2.93,8.26-2.57
			c0,1.07,0,2.12,0,3.19c-0.95,0.1-1.91,0.14-2.84,0.3c-3.46,0.61-5.46,3.02-5.47,6.54c0,2.83,0,5.66,0,8.48c0,0.36,0,0.71,0,1.11
			c-1.26,0-2.42,0-3.65,0C57.86,120.38,57.86,113.85,57.86,107.26z"/>
		<path class="st0" d="M72.75,107.26c1.27,0,2.43,0,3.64,0c0,6.56,0,13.07,0,19.64c-1.23,0-2.41,0-3.64,0
			C72.75,120.34,72.75,113.83,72.75,107.26z"/>
		<path class="st0" d="M74.57,100.2c1.33,0,2.41,1.06,2.43,2.39c0.03,1.35-1.08,2.47-2.45,2.47c-1.33,0-2.41-1.06-2.44-2.39
			C72.09,101.32,73.2,100.2,74.57,100.2z"/>
	</g>
</g>
</svg>
