<?xml version="1.0" encoding="utf-8"?>
<!-- Generator: Adobe Illustrator 23.0.3, SVG Export Plug-In . SVG Version: 6.00 Build 0)  -->
<svg version="1.1" id="Layer_1" xmlns="http://www.w3.org/2000/svg" xmlns:xlink="http://www.w3.org/1999/xlink" x="0px" y="0px"
	 viewBox="0 0 413.81 509.37" style="enable-background:new 0 0 413.81 509.37;" xml:space="preserve">
<style type="text/css">
	.st0{fill:#0C2850;}
	.st1{fill:#F36717;}
</style>
<g>
	<path class="st0" d="M118.51,22.36c14.8-6.13,28.05-4.02,47.17,7.42c0-9.67,0-19.03,0-28.38c14.47-4.31,32.9,1.63,41.99,13.99
		c3.02,4.11,5.88,8.74,7.21,13.57c1.63,5.9,4.4,8.62,10.5,8.44c2.79-0.08,5.61,0.67,8.4,1.12c5.12,0.83,9.41,2.05,13.92-3.47
		c5.27-6.45,15.72-2.4,16.92,6.05c0.56,3.98,2.41,5.27,5.78,6.73c12.49,5.41,24.77,11.32,37.67,17.29c0.88-0.55,2.43-1.82,4.21-2.59
		c4.05-1.75,7.91-0.99,11.16,1.89c3.48,3.09,4.26,7.23,2.83,11.43c-0.83,2.43-0.46,3.65,1.27,5.51c8.93,9.63,17.64,19.47,26.35,29.3
		c1.55,1.75,2.45,3.55,5.6,2.61c4.92-1.47,9.94,1.08,12.25,5.37c2.38,4.42,1.4,9.14-2.73,13c-0.48,0.45-1.09,0.76-0.7,0.5
		c5.22,13.68,10.15,26.73,15.25,39.7c0.47,1.19,2.02,2.57,3.22,2.74c6.77,0.94,10.09,3.34,11.23,8.69c1.1,5.18-1.35,9.6-7.39,13.03
		c1.36,9.22,2.78,18.55,4.09,27.9c0.65,4.61,1.26,9.24,1.62,13.89c0.2,2.6,0.71,4.13,3.75,4.8c4.84,1.07,7.67,4.56,8.18,9.55
		c0.46,4.55-2.35,9.09-7.27,10.81c-3.01,1.05-3.52,2.64-3.62,5.45c-0.45,12.98-1.08,25.96-1.81,38.92
		c-0.16,2.78,0.14,4.42,3.21,5.63c4.71,1.84,7.22,6.66,6.53,11.27c-0.74,4.97-3.82,7.81-8.62,9.26c-1.56,0.47-3.67,2.03-3.96,3.41
		c-2.97,14.33-5.63,28.73-8.36,43.12c-0.09,0.48-0.01,0.98-0.01,2.12c9.77,0,19.46,0,29.48,0c0,7.06,0,13.48,0,20.37
		c-112.87,0-225.73,0-338.94,0c0-6.52,0-13.07,0-20.12c9.4,0,18.65,0,27.94,0c1.16-6.16,1.98-11.9,3.33-17.5
		c5.21-21.55,17.26-39.19,32.41-54.8c11.95-12.31,24.78-23.77,36.68-36.12c10.27-10.66,19.8-22.02,29.6-33.13
		c1.41-1.6,2.46-3.51,3.95-5.68c-1.17-0.34-1.88-0.72-2.6-0.72c-12.16-0.04-24.33-0.13-36.49,0.05c-2.2,0.03-4.73,0.78-6.52,2.03
		c-4.61,3.25-9.25,6.6-13.22,10.57c-17.67,17.65-28.54,38.76-33.72,64.79c-16.98,0-34.03,0-51.4,0c0-6.62,0-13.21,0-20.94
		c-5.94,4.83-11.36,9.23-17.1,13.9c-1.72-1.94-3.36-3.76-4.97-5.61c-13.09-15.12-26.18-30.23-39.25-45.36
		c-4.56-5.28-4.67-8.51-0.51-14.15c21.85-29.63,43.78-59.2,65.48-88.94c2.88-3.95,5.14-8.52,6.85-13.11
		c3.42-9.19,6.11-18.65,9.47-27.86c0.73-2.01,2.79-4.57,4.64-4.97c12.31-2.6,19.33-11.03,26.8-20.42
		c7.97-10.01,9.83-19.61,6.96-31.59C120.82,43.12,120.03,32.75,118.51,22.36z M140.12,110.43c-11.27,3.82-22.4,7.67-33.61,11.33
		c-2.94,0.96-4.85,2.36-5.63,5.53c-4.81,19.62-14.75,36.54-27.51,51.98c-2.75,3.33-5.12,6.98-7.67,10.48
		c-12.93,17.78-25.89,35.54-38.7,53.41c-0.92,1.28-1.58,4.07-0.87,4.97c7.66,9.63,15.63,19.02,23.71,28.71
		c8.17-6.89,15.99-13.61,24-20.12c1.57-1.27,4.1-2.72,5.71-2.29c3.31,0.9,5.07,3.34,4.91,7.47c-0.39,10.09-0.13,20.21-0.13,30.76
		c4.23,0,7.87-0.14,11.49,0.05c2.74,0.14,3.99-0.72,4.92-3.52c8.36-25.27,22.91-46.41,43.16-63.65c0.83-0.71,1.51-1.58,2.3-2.43
		c-3.53-4.32-6.86-8.4-10.35-12.69c5.42-4.68,10.39-8.97,15.54-13.42c4.46,5.53,8.23,10.63,12.5,15.27
		c1.56,1.69,4.32,3.21,6.53,3.21c15.49,0.04,30.98-0.44,46.48-0.52c3.08-0.02,4.65-1.18,5.41-3.92c3.1-11.02,6.72-21.93,9.11-33.1
		c1.75-8.2,1.88-16.75,2.73-25.1c6.67,0,13.22,0,19.86,0c0.1,1.05,0.22,1.7,0.22,2.34c-0.31,38.02-10.3,73.02-35.32,102.14
		c-17.12,19.92-36.07,38.29-54.42,57.13c-11.88,12.2-23.75,24.34-31.53,39.75c-4.53,8.97-7.65,18.34-8.09,28.9
		c1.74,0.12,3.19,0.31,4.64,0.31c76.15,0.01,152.29-0.01,228.44,0.1c3.58,0.01,4.86-1.2,5.61-4.53
		c7.57-33.2,12.63-66.7,13.26-100.81c0.69-37.43-3.17-74.2-16.46-109.45c-20.35-53.94-56.8-90.86-113.63-105.61
		c-7.94-2.06-16.1-3.27-24.91-5.02c0,12.13,0,23.17,0,34.84c-7.19-1.24-13.66-2.35-19.85-3.42c-0.5-10.69-0.27-20.91-1.65-30.91
		c-1.23-8.97-3.86-17.81-6.63-26.47c-1.07-3.37-4.2-6.08-6.95-9.86c-2.07,18.37-3.96,35.08-5.88,52.11
		c-5.9-1.09-10.28-2.28-14.73-2.63c-4.25-0.33-5.45-2.1-5.67-6.23c-0.62-11.79-7.59-20.9-17.91-24.1c0,1.51-0.17,2.97,0.03,4.39
		c1.14,8.07,2.35,16.14,3.59,24.2c0.57,3.71,0.78,7.27-2.19,10.23c-8.64,8.62-10.31,18.23-4,28.93
		C140.06,109.3,140.02,109.5,140.12,110.43z"/>
	<path class="st1" d="M75.2,468.77c2.15,0,3.95,0,5.75,0c108.64,0,217.27,0,325.91,0c6.63,0,6.64,0.01,6.65,6.49
		c0.01,9.5-0.19,19,0.09,28.49c0.13,4.38-1.25,5.63-5.67,5.62c-53.32-0.15-106.64-0.1-159.95-0.1c-55.65,0-111.3,0-166.95,0
		c-1.81,0-3.61,0-5.82,0C75.2,495.79,75.2,482.73,75.2,468.77z"/>
	<path class="st0" d="M112.71,161.25c-0.76-9.03-1.45-17.29-2.2-26.16c11.19-1.2,22.13-2.37,33.54-3.59
		c0.18,4.01,0.5,7.47,0.38,10.91c-0.03,1.02-1.07,2.42-2.02,2.95C132.81,150.6,123.13,155.7,112.71,161.25z"/>
	<path class="st0" d="M42.7,249.67c2.68-8.72,5.19-16.89,7.97-25.94c3,0.16,7,0.38,11.29,0.61c0.55,9.97-0.32,19.12-4.26,27.73
		c-0.46,1-2.88,1.95-4.03,1.63C49.71,252.59,45.91,250.9,42.7,249.67z"/>
</g>
</svg>
