<?xml version="1.0" encoding="utf-8"?>
<!-- Generator: Adobe Illustrator 21.1.0, SVG Export Plug-In . SVG Version: 6.00 Build 0)  -->
<svg version="1.1" id="Layer_1" xmlns="http://www.w3.org/2000/svg" xmlns:xlink="http://www.w3.org/1999/xlink" x="0px" y="0px"
	 viewBox="0 0 80 80" style="enable-background:new 0 0 80 80;" xml:space="preserve">
<style type="text/css">
	.st0{clip-path:url(#SVGID_2_);}
	.st1{clip-path:url(#SVGID_4_);fill:#FFFFFF;}
</style>
<g>
	<g>
		<defs>
			<rect id="SVGID_1_" width="80" height="80"/>
		</defs>
		<clipPath id="SVGID_2_">
			<use xlink:href="#SVGID_1_"  style="overflow:visible;"/>
		</clipPath>
		<g class="st0">
			<defs>
				<rect id="SVGID_3_" width="80" height="80"/>
			</defs>
			<clipPath id="SVGID_4_">
				<use xlink:href="#SVGID_3_"  style="overflow:visible;"/>
			</clipPath>
			<path class="st1" d="M48.8,37.9c-1.9-0.1-3.4,1.2-3.5,2.9h6C51.4,39.3,50.3,38,48.8,37.9"/>
			<path class="st1" d="M34.7,37.9c0.6,0,1-0.4,1.1-0.9c0.1-0.7,0.2-1.4,0.1-2c-0.1-0.8-0.7-1.2-1.5-1.2c-1.6,0-3.1,0-4.7,0
				c-0.1,0-0.3,0-0.4,0v4.1C31.1,37.9,32.9,37.9,34.7,37.9"/>
			<path class="st1" d="M34.2,40.8c-1.5,0.1-2.9,0-4.4,0c-0.2,0-0.4,0-0.5,0v4.9c1.9,0,3.8,0,5.7,0c0.7,0,1.3-0.5,1.5-1.2
				c0.1-0.5,0.2-1.1,0.2-1.6C36.5,41.6,35.7,40.8,34.2,40.8"/>
			<path class="st1" d="M40,15c-13.8,0-25,11.2-25,25s11.2,25,25,25s25-11.2,25-25S53.8,15,40,15 M44.5,31.6h7.6v2.2h-7.6V31.6z
				 M38.9,47.6c-1,0.9-2.2,1.4-3.6,1.4c-3.4,0.1-6.9,0-10.4,0V30.5c0.1,0,0.3,0,0.4,0c3.2,0,6.4,0,9.6,0c1.2,0,2.3,0.3,3.2,1.1
				c1.6,1.2,2.2,3.9,1.4,5.7c-0.4,0.9-1.2,1.4-2.3,1.7c2.3,0.3,3,1.8,3.2,3.7C40.7,44.6,40.4,46.3,38.9,47.6 M54.9,43.3h-9.5
				c-0.3,1.2,0.5,2.6,1.8,3.1c1,0.3,2,0.3,3-0.1c0.8-0.3,1.2-0.9,1.4-1.7h3.2c0,1.7-0.6,3-2.1,3.9c-1,0.6-2.1,0.9-3.2,1
				c-1.4,0.1-2.8,0-4.1-0.4c-1.8-0.6-3.1-1.9-3.7-3.7c-0.8-2.5-0.6-4.9,0.7-7.1c1.5-2.5,4-3.2,6.7-3c0.8,0.1,1.5,0.2,2.2,0.5
				c2,0.8,3,2.5,3.4,4.6C55,41.3,55.1,42.3,54.9,43.3"/>
		</g>
	</g>
</g>
</svg>
