<?xml version="1.0" encoding="utf-8"?>
<!-- Generator: Adobe Illustrator 23.1.0, SVG Export Plug-In . SVG Version: 6.00 Build 0)  -->
<svg version="1.1" id="Layer_1" xmlns="http://www.w3.org/2000/svg" xmlns:xlink="http://www.w3.org/1999/xlink" x="0px" y="0px"
	 viewBox="0 0 500 500" style="enable-background:new 0 0 500 500;" xml:space="preserve">
<style type="text/css">
	.st0{fill:#9A4993;}
	.st1{fill:#6A1577;}
	.st2{fill:#813084;}
	.st3{fill:#FFFFFF;}
</style>
<path id="XMLID_3_" class="st0" d="M472.5,146.9c0-8.4-1.8-15.9-5.5-22.2c-3.6-6.3-8.9-11.5-16-15.6C391.8,75,332.5,40.9,273.3,6.7
	c-16-9.2-31.4-8.9-47.3,0.4C202.4,21,84.3,88.7,49.2,109.1c-14.5,8.4-21.5,21.2-21.5,38c0,68.7,0,137.4,0,206.1
	c0,8.2,1.8,15.5,5.2,21.8c3.6,6.4,9,11.9,16.3,16.2c35.2,20.4,153.2,88,176.8,101.9c15.9,9.3,31.4,9.7,47.3,0.4
	c59.2-34.3,118.5-68.2,177.7-102.4c7.4-4.2,12.7-9.6,16.3-16.2c3.4-6.3,5.2-13.6,5.2-21.8C472.5,353,472.5,215.6,472.5,146.9"/>
<path id="XMLID_4_" class="st1" d="M250.6,249.3l-218,125.5c3.6,6.4,9,11.9,16.3,16.2c35.2,20.4,153.2,88,176.8,101.9
	c15.9,9.3,31.4,9.7,47.3,0.4c59.2-34.3,118.5-68.2,177.7-102.4c7.4-4.2,12.7-9.6,16.3-16.2L250.6,249.3"/>
<path id="XMLID_5_" class="st1" d="M186.1,286.4c12.7,22.2,36.6,37.1,63.9,37.1c27.5,0,51.5-15.1,64.1-37.5l-63.4-36.7L186.1,286.4"
	/>
<path id="XMLID_6_" class="st2" d="M472.5,146.9c0-8.4-1.8-15.9-5.5-22.2L250.6,249.3l216.6,125.5c3.4-6.3,5.2-13.6,5.2-21.8
	C472.5,353,472.5,215.6,472.5,146.9"/>
<path id="XMLID_9_" class="st3" d="M314.1,286c-12.6,22.3-36.6,37.5-64.1,37.5c-27.4,0-51.2-14.9-63.9-37.1
	c-6.2-10.8-9.7-23.2-9.7-36.4c0-40.7,32.9-73.6,73.6-73.6c27.1,0,50.8,14.8,63.6,36.7l64.3-37c-25.6-44.1-73.3-73.9-128-73.9
	c-81.7,0-147.7,66.2-147.7,147.7c0,26.7,7.1,51.9,19.6,73.6c25.5,44.3,73.4,74.1,128.3,74.1c54.9,0,102.9-30,128.4-74.5L314.1,286"
	/>
<g id="XMLID_32_">
	<rect id="XMLID_2_" x="380.7" y="215" class="st3" width="14.7" height="70.8"/>
	<rect id="XMLID_30_" x="413.2" y="215" class="st3" width="14.7" height="70.8"/>
	<rect id="XMLID_31_" x="368.9" y="226.9" class="st3" width="70.8" height="14.7"/>
	<rect id="XMLID_23_" x="368.9" y="259.3" class="st3" width="70.8" height="14.7"/>
</g>
</svg>
