<?xml version="1.0" encoding="utf-8"?>
<!-- Generator: Adobe Illustrator 20.1.0, SVG Export Plug-In . SVG Version: 6.00 Build 0)  -->
<svg version="1.1" id="Calque_1" xmlns="http://www.w3.org/2000/svg" xmlns:xlink="http://www.w3.org/1999/xlink" x="0px" y="0px"
	 viewBox="0 0 48 48" style="enable-background:new 0 0 48 48;" xml:space="preserve">
<style type="text/css">
	.st0{fill:none;}
	.st1{fill:#FFFFFF;}
</style>
<g id="Icon">
	<rect class="st0" width="48" height="48"/>
	<g transform="translate(0,-952.36218)">
		<path class="st1" d="M10.5,956c-0.7,0-1.4,0.7-1.4,1.4v4.2H6.3c-1,0-1.9,0.8-1.9,1.9v0.9c0,1,0.8,1.9,1.9,1.9h2.8v3.7H6.3
			c-1,0-1.9,0.8-1.9,1.9v0.9c0,1,0.8,1.9,1.9,1.9h2.8v3.7H6.3c-1,0-1.9,0.8-1.9,1.9v0.9c0,1,0.8,1.9,1.9,1.9h2.8v3.7H6.3
			c-1,0-1.9,0.8-1.9,1.9v0.9c0,1,0.8,1.9,1.9,1.9h2.8v4.2c0,0.7,0.7,1.4,1.4,1.4h29.8c0.7,0,1.4-0.7,1.4-1.4v-38.1
			c0-0.7-0.7-1.4-1.4-1.4H10.5z M11,957.8h28.8V995H11v-3.7h2.8c1,0,1.9-0.8,1.9-1.9v-0.9c0-1-0.8-1.9-1.9-1.9H11v-3.7h2.8
			c1,0,1.9-0.8,1.9-1.9v-0.9c0-1-0.8-1.9-1.9-1.9H11v-3.7h2.8c1,0,1.9-0.8,1.9-1.9v-0.9c0-1-0.8-1.9-1.9-1.9H11v-3.7h2.8
			c1,0,1.9-0.8,1.9-1.9v-0.9c0-1-0.8-1.9-1.9-1.9H11V957.8z M27.7,961.5c-2,0-3.7,1.7-3.7,3.7s1.7,3.7,3.7,3.7s3.7-1.7,3.7-3.7
			S29.8,961.5,27.7,961.5z M6.3,963.4h7.4v0.9H6.3V963.4z M27.7,963.4c1,0,1.9,0.8,1.9,1.9s-0.8,1.9-1.9,1.9s-1.9-0.8-1.9-1.9
			S26.7,963.4,27.7,963.4z M27.7,970.8c-2,0-3.7,0.5-5.1,1.2c-1.4,0.8-2.4,2-2.4,3.4v3.7c0,0.5,0.4,0.9,0.9,0.9h13
			c0.5,0,0.9-0.4,0.9-0.9v-3.7c0-1.4-1-2.6-2.4-3.4C31.4,971.3,29.7,970.8,27.7,970.8z M6.3,971.8h7.4v0.9H6.3V971.8z M27.7,972.7
			c1.7,0,3.1,0.4,4.1,1c1,0.6,1.4,1.3,1.4,1.8v2.8H22.1v-2.8c0-0.5,0.4-1.2,1.4-1.8C24.6,973.1,26.1,972.7,27.7,972.7z M6.3,980.1
			h7.4v0.9H6.3V980.1z M21.2,982.9c-0.5,0-0.9,0.4-0.9,0.9s0.4,0.9,0.9,0.9h13c0.5,0,0.9-0.4,0.9-0.9s-0.4-0.9-0.9-0.9H21.2z
			 M21.2,987.6c-0.5,0-0.9,0.4-0.9,0.9c0,0.5,0.4,0.9,0.9,0.9h13c0.5,0,0.9-0.4,0.9-0.9c0-0.5-0.4-0.9-0.9-0.9H21.2z M6.3,988.5h7.4
			v0.9H6.3V988.5z"/>
	</g>
</g>
</svg>
