<?xml version="1.0" encoding="utf-8"?>
<!-- Generator: Adobe Illustrator 23.1.0, SVG Export Plug-In . SVG Version: 6.00 Build 0)  -->
<svg version="1.1" id="Layer_1" xmlns="http://www.w3.org/2000/svg" xmlns:xlink="http://www.w3.org/1999/xlink" x="0px" y="0px"
	 viewBox="0 0 500 500" style="enable-background:new 0 0 500 500;" xml:space="preserve">
<style type="text/css">
	.st0{fill:#1F72B5;}
	.st1{fill:#51A3DC;}
	.st2{fill:#EBEBEB;}
	.st3{fill:#CECECE;}
</style>
<g id="XMLID_1_">
	<polygon id="XMLID_11_" class="st0" points="105.1,459.9 72.9,98.2 427.1,98.2 394.9,459.7 249.7,500 	"/>
	<polygon id="XMLID_10_" class="st1" points="250,469.3 367.2,436.8 394.9,127.8 250,127.8 	"/>
	<polygon id="XMLID_35_" class="st2" points="134.9,211.3 130.6,169.4 369.4,169.4 366.7,217.9 265.7,262.5 362.5,262.5 352.1,400 
		254.4,426.3 153.2,401.7 146.9,331.9 191.7,331.9 194.2,368.8 252.8,379.7 306.9,363.1 309.4,304.2 143.1,304.2 140,260.4 
		250,212.2 	"/>
	<g id="XMLID_2_">
		<polygon id="XMLID_39_" class="st3" points="140,260.4 143.1,304.2 250,304.2 250,212.2 		"/>
		<polygon id="XMLID_40_" class="st3" points="194.2,368.8 191.7,331.9 146.9,331.9 153.2,401.7 250,425.1 250,379.2 		"/>
		<polygon id="XMLID_41_" class="st3" points="130.6,169.4 134.9,211.3 250,212.2 250,169.4 		"/>
	</g>
	<g id="XMLID_36_">
		<polygon id="XMLID_34_" points="283.3,16.7 283.3,0 216.7,0 216.7,38.9 262.5,38.9 262.5,51.4 215.3,51.4 215.3,66.7 281.9,66.7 
			281.9,26.4 234.7,26.4 234.7,16.7 		"/>
		<polygon id="XMLID_38_" points="162.5,39.3 162.5,51.4 209.7,51.4 209.7,66.7 143.1,66.7 143.1,26.8 143.1,0 208.3,0 208.3,16.7 
			162.5,16.7 		"/>
		<polygon id="XMLID_37_" points="356.9,16.7 356.9,0 290.3,0 290.3,38.9 336.1,38.9 336.1,51.4 288.9,51.4 288.9,66.7 355.6,66.7 
			355.6,26.4 308.3,26.4 308.3,16.7 		"/>
	</g>
</g>
</svg>
