<?xml version="1.0" encoding="utf-8"?>
<!-- Generator: Adobe Illustrator 23.0.1, SVG Export Plug-In . SVG Version: 6.00 Build 0)  -->
<svg version="1.1" id="Calque_1" xmlns="http://www.w3.org/2000/svg" xmlns:xlink="http://www.w3.org/1999/xlink" x="0px" y="0px"
	 viewBox="0 0 48 48" style="enable-background:new 0 0 48 48;" xml:space="preserve">
<style type="text/css">
	.st0{fill:none;}
	.st1{fill:#FFFFFF;}
</style>
<g id="Icon_2_">
	<rect class="st0" width="48" height="48"/>
	<g>
		<path class="st1" d="M37.7,5.9h-5.3V5.2c0-0.5-0.4-1-1-1h-4c-0.1-1.9-1.6-3.4-3.5-3.4s-3.4,1.5-3.4,3.4h-4c-0.5,0-1,0.4-1,1v0.7
			h-5.3c-1.5,0-2.8,1.2-2.8,2.9v35c0,1.5,1.2,2.9,2.8,2.9h27.4c1.5,0,2.8-1.2,2.8-2.9v-35C40.5,7.1,39.3,5.9,37.7,5.9z M24,2.7
			c0.9,0,1.5,0.7,1.5,1.6S24.6,6,24,6c-1,0-1.4-0.6-1.5-1.6C22.5,3.4,23.1,2.7,24,2.7z M17.4,6.1H21l0,0c0.7,1,1.7,1.6,2.9,1.6
			c1.2,0,2.3-0.7,3-1.6l0,0h3.6v2.3H17.4V6.1z M38.6,43.8c0,0.5-0.4,1-1,1H10.3c-0.5,0-1-0.4-1-1v-35c0-0.5,0.4-1,1-1h5.3v1.5
			c0,0.5,0.4,1,1,1l0,0h15l0,0c0.5,0,1-0.4,1-1V7.8h5.3c0.5,0,1,0.4,1,1v35H38.6z"/>
		<path class="st1" d="M31.8,13H16.2c-0.5,0-1,0.4-1,1v17.8c0,0.5,0.4,1,1,1h15.6c0.5,0,1-0.4,1-1V14C32.8,13.5,32.3,13,31.8,13z
			 M30.9,14.9v12.9c-1.5-2.1-4.1-3.4-6.9-3.4s-5.3,1.3-6.9,3.4V14.9H30.9z M17.7,30.8c0.9-2.7,3.4-4.6,6.3-4.6s5.4,1.8,6.3,4.6H17.7
			z"/>
		<path class="st1" d="M24,23.3c2.2,0,3.9-1.7,3.9-3.9s-1.7-3.9-3.9-3.9s-3.9,1.7-3.9,3.9S21.8,23.3,24,23.3z M24,17.3
			c1.1,0,2,1,2,2c0,1.1-1,2-2,2c-1.1,0-2-1-2-2S22.9,17.3,24,17.3z"/>
		<path class="st1" d="M31.8,35.4H16.2c-0.5,0-1,0.4-1,1s0.4,1,1,1h15.6c0.5,0,1-0.4,1-1S32.3,35.4,31.8,35.4z"/>
		<path class="st1" d="M31.8,39.9H16.2c-0.5,0-1,0.4-1,1c0,0.5,0.4,1,1,1h15.6c0.5,0,1-0.4,1-1C32.8,40.2,32.3,39.9,31.8,39.9z"/>
	</g>
</g>
</svg>
