<svg id="Calque_1" data-name="Calque 1" xmlns="http://www.w3.org/2000/svg" viewBox="0 0 48 48"><defs><style>.cls-1{fill:none;}</style></defs><title>cv-icon-dark</title><g id="Icon"><rect class="cls-1" width="48" height="48"/><path d="M37.7,5.9H32.4V5.2a1,1,0,0,0-1-1h-4A3.52,3.52,0,0,0,23.9.8a3.37,3.37,0,0,0-3.4,3.4h-4a1,1,0,0,0-1,1v.7H10.2A2.82,2.82,0,0,0,7.4,8.8v35a2.88,2.88,0,0,0,2.8,2.9H37.6a2.82,2.82,0,0,0,2.8-2.9V8.8A2.63,2.63,0,0,0,37.7,5.9ZM24,2.7a1.5,1.5,0,0,1,1.5,1.6A1.82,1.82,0,0,1,24,6c-1,0-1.4-.6-1.5-1.6A1.53,1.53,0,0,1,24,2.7ZM17.4,6.1H21a3.48,3.48,0,0,0,2.9,1.6,3.94,3.94,0,0,0,3-1.6h3.6V8.4H17.4ZM38.6,43.8a1,1,0,0,1-1,1H10.3a1,1,0,0,1-1-1V8.8a1,1,0,0,1,1-1h5.3V9.3a1,1,0,0,0,1,1h15a1,1,0,0,0,1-1V7.8h5.3a1,1,0,0,1,1,1v35Z"/><path d="M31.8,13H16.2a1,1,0,0,0-1,1V31.8a1,1,0,0,0,1,1H31.8a1,1,0,0,0,1-1V14A1.08,1.08,0,0,0,31.8,13Zm-.9,1.9V27.8A8.48,8.48,0,0,0,24,24.4a8.62,8.62,0,0,0-6.9,3.4V14.9ZM17.7,30.8A6.67,6.67,0,0,1,24,26.2a6.54,6.54,0,0,1,6.3,4.6Z"/><path d="M24,23.3a3.9,3.9,0,1,0-3.9-3.9A3.84,3.84,0,0,0,24,23.3Zm0-6a2,2,0,1,1-2,2A2.07,2.07,0,0,1,24,17.3Z"/><path d="M31.8,35.4H16.2a1,1,0,0,0-1,1,.94.94,0,0,0,1,1H31.8a1,1,0,0,0,0-2Z"/><path d="M31.8,39.9H16.2a1,1,0,1,0,0,2H31.8a1,1,0,0,0,1-1A.94.94,0,0,0,31.8,39.9Z"/></g></svg>