<?xml version="1.0" encoding="utf-8"?>
<!-- Generator: Adobe Illustrator 23.1.0, SVG Export Plug-In . SVG Version: 6.00 Build 0)  -->
<svg version="1.1" id="Layer_1" xmlns="http://www.w3.org/2000/svg" xmlns:xlink="http://www.w3.org/1999/xlink" x="0px" y="0px"
	 viewBox="0 0 500 500" style="enable-background:new 0 0 500 500;" xml:space="preserve">
<style type="text/css">
	.st0{fill:#E44D26;}
	.st1{fill:#F16529;}
	.st2{fill:#EBEBEB;}
	.st3{fill:#FFFFFF;}
</style>
<g id="XMLID_1_">
	<polygon id="XMLID_11_" class="st0" points="105.1,459.9 72.9,98.2 427.1,98.2 394.9,459.7 249.7,500 	"/>
	<polygon id="XMLID_10_" class="st1" points="250,469.3 367.2,436.8 394.9,127.8 250,127.8 	"/>
	<polygon id="XMLID_9_" class="st2" points="250,261.9 191.3,261.9 187.2,216.5 250,216.5 250,172.2 249.9,172.2 138.7,172.2 
		139.9,184 150.7,306.3 250,306.3 	"/>
	<polygon id="XMLID_8_" class="st2" points="250,377.1 249.9,377.2 200.4,363.8 197.2,328.5 173.2,328.5 152.8,328.5 158.9,398.1 
		249.9,423.3 250,423.2 	"/>
	<path id="XMLID_7_" d="M105.8,0h22.5v22.2h20.6V0h22.5v67.4h-22.5V44.7h-20.6v22.6h-22.5V0L105.8,0z"/>
	<path id="XMLID_6_" d="M201.1,22.4h-19.9V0h62.2v22.4h-19.9v45h-22.5V22.4L201.1,22.4z"/>
	<path id="XMLID_5_" d="M253.5,0h23.5l14.4,23.7L305.8,0h23.5v67.4h-22.4V34l-15.6,24H291l-15.6-24v33.5h-22.1V0H253.5z"/>
	<path id="XMLID_4_" d="M340.6,0h22.5v45.1h31.7v22.2h-54.2V0z"/>
	<polygon id="XMLID_3_" class="st3" points="249.9,261.9 249.9,306.3 304.4,306.3 299.3,363.8 249.9,377.1 249.9,423.3 340.7,398.1 
		341.4,390.6 351.8,273.9 352.9,261.9 341,261.9 	"/>
	<polygon id="XMLID_2_" class="st3" points="249.9,172.2 249.9,199.7 249.9,216.4 249.9,216.5 356.8,216.5 356.8,216.5 356.9,216.5 
		357.9,206.5 359.9,184 361,172.2 	"/>
</g>
</svg>
