<svg id="Layer_1" data-name="Layer 1" xmlns="http://www.w3.org/2000/svg" viewBox="0 0 48 48"><defs><style>.cls-1,.cls-2{fill:#fff;}.cls-2{opacity:0;}</style></defs><title>illustrations-icon</title><path class="cls-1" d="M44.5,6.33h-41A2.79,2.79,0,0,0,.73,9.11V37.94a2.79,2.79,0,0,0,2.78,2.78h41a2.79,2.79,0,0,0,2.79-2.78V9.11A2.79,2.79,0,0,0,44.5,6.33Zm-41,1.5h41a1.28,1.28,0,0,1,1.29,1.28V28.39l-9.1-11.63a.73.73,0,0,0-1.12-.06L21.14,31.52l-7.51-9.25a.74.74,0,0,0-1.09-.08L2.23,31.69V9.11A1.28,1.28,0,0,1,3.51,7.83ZM2.23,37.94V33.73L13,23.83l12.5,15.39h-22A1.28,1.28,0,0,1,2.23,37.94ZM44.5,39.22H27.4l-5.31-6.53L36,18.36l9.75,12.47v7.11A1.28,1.28,0,0,1,44.5,39.22Z"/><path class="cls-1" d="M21.25,22.71a6.57,6.57,0,1,0-6.57-6.57A6.58,6.58,0,0,0,21.25,22.71Zm0-11.64a5.07,5.07,0,1,1-5.07,5.07A5.07,5.07,0,0,1,21.25,11.07Z"/><rect class="cls-2" width="48" height="48"/></svg>