<?xml version="1.0" encoding="utf-8"?>
<!-- Generator: Adobe Illustrator 23.1.0, SVG Export Plug-In . SVG Version: 6.00 Build 0)  -->
<svg version="1.1" id="Layer_1" xmlns="http://www.w3.org/2000/svg" xmlns:xlink="http://www.w3.org/1999/xlink" x="0px" y="0px"
	 viewBox="0 0 500 500" style="enable-background:new 0 0 500 500;" xml:space="preserve">
<style type="text/css">
	.st0{fill:#0074BD;}
	.st1{fill:#EA2D2E;}
</style>
<g id="XMLID_1_">
	<path id="XMLID_16_" class="st0" d="M204.5,265.3c0,0-13.1,7.6,9.3,10.1c27.2,3.1,41.1,2.7,70.9-3c0,0,7.8,5,18.9,9.2
		C236.5,310.4,151.8,280,204.5,265.3L204.5,265.3z"/>
	<path id="XMLID_15_" class="st0" d="M196.2,227.7c0,0-14.7,10.9,7.7,13.2c29.1,3,51.9,3.2,91.6-4.5c0,0,5.5,5.5,14.1,8.6
		C228.6,268.8,138.2,246.9,196.2,227.7L196.2,227.7z"/>
	<path id="XMLID_14_" class="st1" d="M265.4,163.9c16.5,19.1-4.3,36.2-4.3,36.2s42-21.6,22.7-48.8c-18-25.3-31.9-37.8,43-81.2
		C326.8,70,209.3,99.3,265.4,163.9L265.4,163.9z"/>
	<path id="XMLID_13_" class="st0" d="M354.2,293c0,0,9.7,8-10.7,14.2c-38.8,11.8-161.4,15.3-195.3,0.4c-12.2-5.3,10.7-12.7,18-14.3
		c7.6-1.6,11.8-1.4,11.8-1.4c-13.6-9.6-88,18.8-37.7,27C277,341.2,389.7,309.1,354.2,293L354.2,293z"/>
	<path id="XMLID_12_" class="st0" d="M210.8,188.8c0,0-62.3,14.9-22,20.1c17,2.3,50.8,1.8,82.4-0.9c25.8-2.2,51.8-6.8,51.8-6.8
		s-9.1,3.9-15.7,8.4c-63.2,16.6-185.5,8.9-150.4-8.1C186.6,187.2,210.8,188.8,210.8,188.8L210.8,188.8z"/>
	<path id="XMLID_11_" class="st0" d="M322.6,251.2c64.3-33.4,34.6-65.5,13.8-61.2c-5.1,1.1-7.3,2-7.3,2s1.9-3,5.5-4.2
		c41.1-14.5,72.7,42.6-13.2,65.1C321.4,253,322.3,252,322.6,251.2L322.6,251.2z"/>
	<path id="XMLID_10_" class="st1" d="M283.8,0c0,0,35.7,35.7-33.8,90.4c-55.7,43.9-12.7,69.1,0,97.7c-32.6-29.3-56.4-55.1-40.4-79.2
		C233.1,73.8,298.1,56.6,283.8,0L283.8,0z"/>
	<path id="XMLID_9_" class="st0" d="M217,341.9c61.8,3.9,156.6-2.2,158.9-31.5c0,0-4.3,11.1-51.1,19.9
		c-52.7,9.9-117.7,8.8-156.4,2.4C168.6,332.7,176.5,339.3,217,341.9L217,341.9z"/>
	<path class="st1" d="M373.1,394.3h-1.9v-1.1h5v1.1h-1.9v5.3H373L373.1,394.3L373.1,394.3L373.1,394.3z M383.2,394.6L383.2,394.6
		l-1.9,5h-0.8l-1.9-5l0,0v5h-1.2v-6.4h1.8l1.8,4.5l1.8-4.5h1.8v6.4h-1.2L383.2,394.6L383.2,394.6z"/>
	<path class="st1" d="M207,453.5c-5.8,5-12,7.8-17.6,7.8c-7.8,0-12.2-4.7-12.2-12.3c0-8.2,4.6-14.2,22.8-14.2h6.8v18.6H207
		L207,453.5z M223.1,471.6v-56.1c0-14.3-8.2-23.8-27.8-23.8c-11.5,0-21.6,2.8-29.9,6.5l2.3,10c6.5-2.4,14.9-4.6,23-4.6
		c11.4,0,16.2,4.6,16.2,14.1v7.2h-5.5c-27.6,0-40,10.7-40,26.8c0,13.9,8.2,21.8,23.6,21.8c9.9,0,17.3-4.1,24.3-10.1l1.2,8.5h12.6
		V471.6z"/>
	<path id="XMLID_4_" class="st1" d="M276.8,471.6h-20l-24.2-78.5h17.6l15,48.2l3.4,14.5c7.6-20.9,13-42.3,15.5-62.7h17
		C296.4,419.1,288.2,447.4,276.8,471.6L276.8,471.6z"/>
	<path class="st1" d="M353.6,453.5c-5.8,5-12,7.8-17.6,7.8c-7.8,0-12.2-4.7-12.2-12.3c0-8.2,4.6-14.2,22.8-14.2h6.8L353.6,453.5
		L353.6,453.5L353.6,453.5z M369.7,471.6v-56.1c0-14.3-8.2-23.8-28-23.8c-11.5,0-21.6,2.8-29.9,6.5l2.3,10c6.5-2.4,14.9-4.6,23-4.6
		c11.4,0,16.2,4.6,16.2,14.1v7.2h-5.7c-27.6,0-40,10.7-40,26.8c0,13.9,8.2,21.8,23.6,21.8c10,0,17.3-4.1,24.3-10.1l1.2,8.5h12.8
		V471.6z"/>
	<path id="XMLID_2_" class="st1" d="M143.6,485c-4.6,6.8-12,12-20.1,15l-8-9.3c6.2-3.1,11.5-8.2,13.9-13c2.2-4.2,3-9.7,3-22.7v-89.6
		h17v88.4C149.6,471.1,148.2,478.1,143.6,485L143.6,485z"/>
</g>
</svg>
