<?xml version="1.0" encoding="utf-8"?>
<!-- Generator: Adobe Illustrator 23.1.0, SVG Export Plug-In . SVG Version: 6.00 Build 0)  -->
<svg version="1.1" id="Layer_1" xmlns="http://www.w3.org/2000/svg" xmlns:xlink="http://www.w3.org/1999/xlink" x="0px" y="0px"
	 viewBox="0 0 500 500" style="enable-background:new 0 0 500 500;" xml:space="preserve">
<style type="text/css">
	.st0{fill:#E8D100;}
	.st1{fill:#F7DF1E;}
	.st2{fill:#46483E;}
	.st3{fill:#FFFFFF;}
	.st4{clip-path:url(#SVGID_2_);fill:#EBEBEB;}
</style>
<g id="XMLID_2_">
	<polyline id="XMLID_4_" class="st0" points="105.2,459.2 73,98.2 427,98.2 394.8,459.2 249.6,500 	"/>
	<polygon id="XMLID_3_" class="st1" points="250.4,127.3 394.8,127.3 367.3,436.5 250.4,468.6 	"/>
	<path id="XMLID_6_" d="M191.1,68.2l13.7-8.2c2.7,4.6,5,8.6,10.7,8.6c5.6,0,9-2.1,9-10.6V0.8h16.8v57.3c0,17.4-10.2,25.3-25.1,25.3
		C202.9,83.5,195.1,76.6,191.1,68.2"/>
	<path id="XMLID_7_" d="M250.5,66.4l13.7-8c3.6,5.8,8.2,10.2,16.6,10.2c6.9,0,11.4-3.4,11.4-8.2c0-5.7-4.5-7.8-12.2-11.1l-4.2-1.9
		c-12.1-5.2-20.2-11.7-20.2-25.3c0-12.6,9.5-22.1,24.5-22.1c10.6,0,18.3,3.7,23.9,13.4l-13.1,8.4c-2.9-5.2-6-7.2-10.7-7.2
		c-4.9,0-8.1,3.2-8.1,7.2c0,5,3.2,7,10.3,10.2l4.2,1.9c14.3,6.1,22.3,12.3,22.3,26.4c0,15.1-11.9,23.3-27.8,23.3
		C265.5,83.5,255.4,76.1,250.5,66.4"/>
	<path id="XMLID_8_" class="st2" d="M250.4,399.4l5.8,10.2l88.4-51c3.6-2.1,5.8-5.9,5.8-10.2v-102c0-4.2-2.2-8.1-5.8-10.2l-88.4-51
		c-3.6-2.1-8.1-2.1-11.8,0l-88.3,51c-3.6,2.1-5.8,5.9-5.8,10.2v102c0,4.2,2.2,8.1,5.8,10.2l88.4,51c3.6,2.1,8.1,2.1,11.8,0
		L250.4,399.4l5.8-10.2l-82.5-47.7v-88.4l76.6-44.3l76.6,44.3v88.4l-82.6,47.8L250.4,399.4l5.8-10.2L250.4,399.4z"/>
	<path id="XMLID_9_" class="st3" d="M250.4,399.4l5.8,10.2l88.4-51c3.6-2.1,5.8-5.9,5.8-10.2v-102c0-4.2-2.2-8.1-5.8-10.2l-88.4-51
		c-3.6-2.1-8.1-2.1-11.8,0l-88.3,51c-3.6,2.1-5.8,5.9-5.8,10.2v102c0,4.2,2.2,8.1,5.8,10.2l88.4,51c3.6,2.1,8.1,2.1,11.8,0
		L250.4,399.4l5.8-10.2l-82.5-47.7v-88.4l76.6-44.3l76.6,44.3v88.4l-82.6,47.8L250.4,399.4l5.8-10.2L250.4,399.4z"/>
	<g id="XMLID_12_">
		<g>
			<defs>
				<rect id="SVGID_1_" x="127.9" y="175" width="122.4" height="244.8"/>
			</defs>
			<clipPath id="SVGID_2_">
				<use xlink:href="#SVGID_1_"  style="overflow:visible;"/>
			</clipPath>
			<path id="XMLID_14_" class="st4" d="M250.4,399.4l5.8,10.2l88.4-51c3.6-2.1,5.8-5.9,5.8-10.2v-102c0-4.2-2.2-8.1-5.8-10.2
				l-88.4-51c-3.6-2.1-8.1-2.1-11.8,0l-88.3,51c-3.6,2.1-5.8,5.9-5.8,10.2v102c0,4.2,2.2,8.1,5.8,10.2l88.4,51
				c3.6,2.1,8.1,2.1,11.8,0L250.4,399.4l5.8-10.2l-82.5-47.7v-88.4l76.6-44.3l76.6,44.3v88.4l-82.6,47.8L250.4,399.4l5.8-10.2
				L250.4,399.4z"/>
		</g>
	</g>
</g>
</svg>
