<?xml version="1.0" encoding="utf-8"?>
<!-- Generator: Adobe Illustrator 21.1.0, SVG Export Plug-In . SVG Version: 6.00 Build 0)  -->
<svg version="1.1" id="Layer_1" xmlns="http://www.w3.org/2000/svg" xmlns:xlink="http://www.w3.org/1999/xlink" x="0px" y="0px"
	 viewBox="0 0 80 80" style="enable-background:new 0 0 80 80;" xml:space="preserve">
<style type="text/css">
	.st0{clip-path:url(#SVGID_2_);}
	.st1{clip-path:url(#SVGID_4_);fill:#FFFFFF;}
</style>
<g>
	<g>
		<defs>
			<rect id="SVGID_1_" width="80" height="80"/>
		</defs>
		<clipPath id="SVGID_2_">
			<use xlink:href="#SVGID_1_"  style="overflow:visible;"/>
		</clipPath>
		<g class="st0">
			<defs>
				<rect id="SVGID_3_" width="80" height="80"/>
			</defs>
			<clipPath id="SVGID_4_">
				<use xlink:href="#SVGID_3_"  style="overflow:visible;"/>
			</clipPath>
			<path class="st1" d="M40,15c-13.8,0-25,11.2-25,25c0,13.8,11.2,25,25,25s25-11.2,25-25C65,26.2,53.8,15,40,15 M32.8,50.4h-5.1
				V33.9h5.1V50.4z M30.1,30.6c-1.6,0-2.6-1.1-2.6-2.6c0-1.5,1.1-2.6,2.7-2.6c1.7,0,2.7,1.1,2.7,2.6C32.8,29.4,31.7,30.6,30.1,30.6
				 M52.5,50.4h-5.1V41c0-2.3-1.2-3.4-3.2-3.4c-1.6,0-2.5,1.1-2.9,2.1c-0.2,0.4-0.2,0.9-0.2,1.4v9.4v0.1h-5.2c0,0,0.1-15.1,0-16.6
				H41V36c0.8-1.2,2.1-2.9,5.1-2.9c3.6,0,6.4,2.4,6.4,7.6V50.4z"/>
		</g>
	</g>
</g>
</svg>
