<?xml version="1.0" encoding="utf-8"?>
<!-- Generator: Adobe Illustrator 23.0.6, SVG Export Plug-In . SVG Version: 6.00 Build 0)  -->
<svg version="1.1" id="Layer_12" xmlns="http://www.w3.org/2000/svg" xmlns:xlink="http://www.w3.org/1999/xlink" x="0px" y="0px"
	 viewBox="0 0 1200 1200" style="enable-background:new 0 0 1200 1200;" xml:space="preserve">
<style type="text/css">
	.st0{fill:url(#SVGID_1_);}
	.st1{opacity:0.5;fill:url(#SVGID_2_);}
	.st2{fill:url(#SVGID_3_);}
	.st3{opacity:0.2;fill:#6E6F6F;}
</style>
<linearGradient id="SVGID_1_" gradientUnits="userSpaceOnUse" x1="600" y1="100" x2="600" y2="1100">
	<stop  offset="9.483465e-07" style="stop-color:#B4B4B5"/>
	<stop  offset="0.2854" style="stop-color:#B0B0B0"/>
	<stop  offset="0.5074" style="stop-color:#A4A4A4"/>
	<stop  offset="0.708" style="stop-color:#939292"/>
	<stop  offset="0.8949" style="stop-color:#7D7C7C"/>
	<stop  offset="1" style="stop-color:#6E6E6E"/>
</linearGradient>
<path class="st0" d="M600,1100L600,1100c-165.69,0-300-134.31-300-300V300c0-110.46,89.54-200,200-200h200
	c110.46,0,200,89.54,200,200v500C900,965.69,765.69,1100,600,1100z"/>
<linearGradient id="SVGID_2_" gradientUnits="userSpaceOnUse" x1="300" y1="600" x2="900" y2="600">
	<stop  offset="6.872849e-07" style="stop-color:#828282"/>
	<stop  offset="0.034" style="stop-color:#8F8F8F"/>
	<stop  offset="0.0867" style="stop-color:#9E9E9F"/>
	<stop  offset="0.1523" style="stop-color:#AAAAAB"/>
	<stop  offset="0.2444" style="stop-color:#B2B2B2"/>
	<stop  offset="0.5" style="stop-color:#B4B4B5"/>
	<stop  offset="0.7556" style="stop-color:#B2B2B2"/>
	<stop  offset="0.8477" style="stop-color:#AAAAAB"/>
	<stop  offset="0.9133" style="stop-color:#9E9E9F"/>
	<stop  offset="0.966" style="stop-color:#8F8F8F"/>
	<stop  offset="1" style="stop-color:#828282"/>
</linearGradient>
<path class="st1" d="M600,1100L600,1100c-165.69,0-300-134.31-300-300V300c0-110.46,89.54-200,200-200h200
	c110.46,0,200,89.54,200,200v500C900,965.69,765.69,1100,600,1100z"/>
<linearGradient id="SVGID_3_" gradientUnits="userSpaceOnUse" x1="600" y1="385" x2="600" y2="225">
	<stop  offset="3.463063e-07" style="stop-color:#323232"/>
	<stop  offset="0.0647" style="stop-color:#363636"/>
	<stop  offset="0.2647" style="stop-color:#424242"/>
	<stop  offset="0.4775" style="stop-color:#4A4A4A"/>
	<stop  offset="0.7102" style="stop-color:#4F4F4F"/>
	<stop  offset="1" style="stop-color:#505150"/>
</linearGradient>
<path class="st2" d="M600,385L600,385c-20.63,0-37.5-16.87-37.5-37.5v-85c0-20.62,16.88-37.5,37.5-37.5h0
	c20.62,0,37.5,16.87,37.5,37.5v85C637.5,368.13,620.63,385,600,385z"/>
<path class="st3" d="M600,385L600,385c-20.63,0-37.5-16.87-37.5-37.5v-85c0-20.62,16.88-37.5,37.5-37.5h0
	c20.62,0,37.5,16.87,37.5,37.5v85C637.5,368.13,620.63,385,600,385z"/>
</svg>
