<svg id="Calque_1" data-name="Calque 1" xmlns="http://www.w3.org/2000/svg" viewBox="0 0 48 48"><defs><style>.cls-1{fill:none;}.cls-2{fill:#fff;}</style></defs><title>research-icon</title><g id="Icon"><rect class="cls-1" width="48" height="48"/><path class="cls-2" d="M47.06,45H23.28a.94.94,0,0,1-.94-.94V40.65a.94.94,0,0,1,.94-.94H33l.95-3.14V32.82H23.28a.94.94,0,0,1,0-1.88H34.55a4.05,4.05,0,0,0,1.6-4.61,4.12,4.12,0,0,0-2.53-2.85v2.83a.94.94,0,0,1-.14.5L32,29.15a.94.94,0,0,1-.8.44h-2.1a.94.94,0,0,1-.79-.43l-1.52-2.33a.94.94,0,0,1-.15-.51V7a.94.94,0,0,1,.56-.86V3.89a2,2,0,0,1,2.12-1.74h1.7a1.89,1.89,0,0,1,2,1.74V6.18a.94.94,0,0,1,.56.86v.8l.49,0a4.17,4.17,0,0,1,2.52,7.49v3.27c3.37.92,9.14,4.52,10.18,10.26a8.06,8.06,0,0,1-1.4,6.71l-.05.06.67,4.1h1a.94.94,0,0,1,.94.94V44A.94.94,0,0,1,47.06,45ZM24.22,43.07h21.9V41.59H24.22Zm10.7-3.36h9.2L43.67,37a6.22,6.22,0,0,1-2.92.7H35.54Zm.86-3.94h5A4,4,0,0,0,44,34.35a6.24,6.24,0,0,0,1-5.17c-1-5.42-7-8.53-9.42-8.91a.94.94,0,0,1-.79-.93V16.11a4.22,4.22,0,0,1-1.13,0v5.42A5.79,5.79,0,0,1,38,25.8a5.93,5.93,0,0,1-2.18,6.57Zm-6.15-8.06H30.7l1-1.67V25.1h-3.2v1Zm-1.09-4.5h3.2V15.42a4.17,4.17,0,0,1,0-6.87V8h-3.2ZM33,10a2.27,2.27,0,1,0,.28-.14A.93.93,0,0,1,33,10ZM29.11,6.1h2.07v-2l-.13,0h-1.7a.58.58,0,0,0-.24.06ZM41.68,34.73a2.94,2.94,0,1,1,2.94-2.94A2.95,2.95,0,0,1,41.68,34.73Zm0-4a1.06,1.06,0,1,0,1.06,1.06A1.06,1.06,0,0,0,41.68,30.72ZM13,30.76a12.4,12.4,0,1,1,12.4-12.4A12.42,12.42,0,0,1,13,30.76ZM13,7.83A10.52,10.52,0,1,0,23.51,18.36,10.54,10.54,0,0,0,13,7.83ZM19.17,23.6a.94.94,0,0,1-.94-.94V17.84a.94.94,0,0,1,1.88,0v4.81A.94.94,0,0,1,19.17,23.6ZM15,23.6a.94.94,0,0,1-.94-.94V21.07a.94.94,0,0,1,1.88,0v1.59A.94.94,0,0,1,15,23.6Zm-4.12,0a.94.94,0,0,1-.94-.94V14.08a.94.94,0,0,1,1.88,0v8.58A.94.94,0,0,1,10.93,23.6Zm-4.12,0a.94.94,0,0,1-.94-.94V17.3a.94.94,0,0,1,1.88,0v5.35A.94.94,0,0,1,6.81,23.6Z"/></g></svg>