<svg id="Calque_1" data-name="Calque 1" xmlns="http://www.w3.org/2000/svg" viewBox="0 0 48 48"><defs><style>.cls-1{fill:none;}.cls-2{fill:#fff;}</style></defs><title>projects-icon</title><rect class="cls-1" width="47.72" height="48"/><path class="cls-2" d="M5.31,8a3.18,3.18,0,0,0-3.12,3.19V35.8a4.5,4.5,0,0,1,3.11-1.2H7a.68.68,0,0,0,.68-.68V8.65A.68.68,0,0,0,7,8ZM1.42,40.09h0a.78.78,0,0,1-.75-.78V11.11a4.71,4.71,0,0,1,4.67-4.7H7A2.24,2.24,0,0,1,9.2,8.65V33.92A2.24,2.24,0,0,1,7,36.17H5.31a3.18,3.18,0,0,0-3.12,3.19.78.78,0,0,1-.78.73Z"/><path class="cls-2" d="M19.33,39.27h0ZM13.88,39l2.34,2.94L18.55,39V7.94H13.88Zm2.34,5a.78.78,0,0,1-.61-.29l-3.11-3.92a.79.79,0,0,1-.17-.49V7.16a.78.78,0,0,1,.78-.78h6.23a.78.78,0,0,1,.78.78V39.27a.79.79,0,0,1-.17.49l-3.11,3.92a.78.78,0,0,1-.61.29Z"/><path class="cls-2" d="M13.88,6.38h4.67V4A1.56,1.56,0,0,0,17,2.46H15.43A1.56,1.56,0,0,0,13.88,4Zm5.45,1.57H13.1a.78.78,0,0,1-.78-.78V4A3.13,3.13,0,0,1,15.43.89H17A3.13,3.13,0,0,1,20.11,4V7.16a.78.78,0,0,1-.78.78Z"/><path class="cls-2" d="M16.21,45.54a.78.78,0,0,1-.78-.78V43.19a.78.78,0,1,1,1.56,0v1.57a.78.78,0,0,1-.78.78"/><path class="cls-2" d="M16.21,37.71a.78.78,0,0,1-.78-.78V10.29a.78.78,0,1,1,1.56,0V36.92a.78.78,0,0,1-.78.78"/><path class="cls-2" d="M13.88,9.51h4.67V7.94H13.88Zm5.45,1.57H13.1a.78.78,0,0,1-.78-.78V7.16a.78.78,0,0,1,.78-.78h6.23a.78.78,0,0,1,.78.78v3.13a.78.78,0,0,1-.78.78Z"/><path class="cls-2" d="M19.33,40.06a.77.77,0,0,1-.47-.16l-2.65-2-2.65,2a.78.78,0,0,1-1.09-.16.79.79,0,0,1,.16-1.1l3.11-2.35a.78.78,0,0,1,.93,0l3.11,2.35a.79.79,0,0,1,.16,1.1.78.78,0,0,1-.62.31"/><path class="cls-2" d="M24.78,45.54H31V15H24.78Zm7,1.57H24a.78.78,0,0,1-.78-.78V14.21a.78.78,0,0,1,.78-.78h7.79a.78.78,0,0,1,.78.78V46.32a.78.78,0,0,1-.78.78Z"/><path class="cls-2" d="M26.34,43.19H24a.78.78,0,0,1,0-1.57h2.34a.78.78,0,0,1,0,1.57"/><path class="cls-2" d="M26.34,40.06H24a.78.78,0,0,1,0-1.57h2.34a.78.78,0,0,1,0,1.57"/><path class="cls-2" d="M27.89,36.92H24a.78.78,0,0,1,0-1.57h3.89a.78.78,0,0,1,0,1.57"/><path class="cls-2" d="M26.34,33.79H24a.78.78,0,0,1,0-1.57h2.34a.78.78,0,0,1,0,1.57"/><path class="cls-2" d="M26.34,30.66H24a.78.78,0,0,1,0-1.57h2.34a.78.78,0,0,1,0,1.57"/><path class="cls-2" d="M27.89,27.52H24A.78.78,0,0,1,24,26h3.89a.78.78,0,0,1,0,1.57"/><path class="cls-2" d="M26.34,24.39H24a.78.78,0,0,1,0-1.57h2.34a.78.78,0,0,1,0,1.57"/><path class="cls-2" d="M27.31,17.34a.19.19,0,0,0-.19.2v1.18a.19.19,0,0,0,.19.2h1.17a.19.19,0,0,0,.19-.2V17.54a.19.19,0,0,0-.19-.2Zm1.17,3.13H27.31a1.76,1.76,0,0,1-1.75-1.76V17.54a1.76,1.76,0,0,1,1.75-1.76h1.17a1.76,1.76,0,0,1,1.75,1.76v1.18a1.76,1.76,0,0,1-1.75,1.76Z"/><path class="cls-2" d="M41,7.94a.68.68,0,0,0-.68.68V33.89a.68.68,0,0,0,.68.68h1.66a4.5,4.5,0,0,1,3.11,1.2V11.08a3.17,3.17,0,0,0-3.11-3.13Zm5.55,32.11a.78.78,0,0,1-.78-.73,3.18,3.18,0,0,0-3.12-3.19H41a2.24,2.24,0,0,1-2.23-2.25V8.62A2.24,2.24,0,0,1,41,6.38h1.66A4.69,4.69,0,0,1,47.36,11V39.27a.78.78,0,0,1-.75.78Z"/><path class="cls-2" d="M41.88,44.79H31.79a.78.78,0,0,1,0-1.57H41.88a3.94,3.94,0,0,0,3.92-3.95.78.78,0,1,1,1.56,0,5.5,5.5,0,0,1-5.48,5.51"/><path class="cls-2" d="M24,44.79H6.09A5.47,5.47,0,0,1,.64,39.3a.78.78,0,1,1,1.56,0,3.91,3.91,0,0,0,3.89,3.92H24a.78.78,0,0,1,0,1.57"/><path class="cls-2" d="M13.1,11.89H8.43a.78.78,0,0,1,0-1.57H13.1a.78.78,0,0,1,0,1.57"/><path class="cls-2" d="M39.57,11.89H19.33a.78.78,0,0,1,0-1.57H39.57a.78.78,0,0,1,0,1.57"/></svg>