<?xml version="1.0" encoding="utf-8"?>
<!-- Generator: Adobe Illustrator 21.1.0, SVG Export Plug-In . SVG Version: 6.00 Build 0)  -->
<svg version="1.1" id="Layer_1" xmlns="http://www.w3.org/2000/svg" xmlns:xlink="http://www.w3.org/1999/xlink" x="0px" y="0px"
	 viewBox="0 0 80 80" style="enable-background:new 0 0 80 80;" xml:space="preserve">
<style type="text/css">
	.st0{clip-path:url(#SVGID_2_);}
	.st1{clip-path:url(#SVGID_4_);fill:#FFFFFF;}
</style>
<g>
	<g>
		<defs>
			<rect id="SVGID_1_" width="80" height="80"/>
		</defs>
		<clipPath id="SVGID_2_">
			<use xlink:href="#SVGID_1_"  style="overflow:visible;"/>
		</clipPath>
		<g class="st0">
			<defs>
				<rect id="SVGID_3_" width="80" height="80"/>
			</defs>
			<clipPath id="SVGID_4_">
				<use xlink:href="#SVGID_3_"  style="overflow:visible;"/>
			</clipPath>
			<path class="st1" d="M40,15c-13.8,0-25,11.2-25,25c0,13.8,11.2,25,25,25c13.8,0,25-11.2,25-25C65,26.2,53.8,15,40,15z M52.7,33.7
				C52.5,44,46,51,36.2,51.3c-4,0.2-7-1-9.5-2.7c3,0.5,6.7-0.7,8.8-2.3c-3-0.3-4.7-1.8-5.5-4.2c0.8,0.2,1.7,0.2,2.5,0
				c-2.7-1-4.5-2.5-4.7-6c0.7,0.3,1.5,0.7,2.5,0.7c-2-1.2-3.5-5.3-1.8-8c3,3.3,6.5,6,12.3,6.2c-1.5-6.3,6.7-9.7,10.2-5.5
				c1.5-0.3,2.7-0.8,3.8-1.5c-0.5,1.5-1.3,2.5-2.5,3.3c1.2,0,2.3-0.3,3.2-0.8C55,31.7,53.7,32.8,52.7,33.7z"/>
		</g>
	</g>
</g>
</svg>
