<?xml version="1.0" encoding="utf-8"?>
<!-- Generator: Adobe Illustrator 23.1.0, SVG Export Plug-In . SVG Version: 6.00 Build 0)  -->
<svg version="1.1" id="Layer_1" xmlns="http://www.w3.org/2000/svg" xmlns:xlink="http://www.w3.org/1999/xlink" x="0px" y="0px"
	 viewBox="0 0 500 500" style="enable-background:new 0 0 500 500;" xml:space="preserve">
<style type="text/css">
	.st0{fill:#222C37;}
</style>
<g id="XMLID_1_">
	<path id="XMLID_2_" class="st0" d="M324.1,250l87.5-151.1L453.9,250l-42.3,151.1L324.1,250z M281.5,274.5L369,425.6l-152.5-39
		L106.4,274.5L281.5,274.5L281.5,274.5z M369,74.4l-87.5,151.1H106.4l110.1-112.1L369,74.4z M493.8,198.6L440.4,0L241.2,53.3
		l-29.5,51.9l-59.9-0.4L6.1,250L152,395.3l0,0l59.9-0.4l29.6,51.9L440.6,500l53.4-198.5L463.5,250L493.8,198.6z"/>
</g>
</svg>
